<?xml version="1.0" encoding="UTF-8" standalone="no"?>
<!DOCTYPE svg PUBLIC "-//W3C//DTD SVG 1.1//EN"
 "http://www.w3.org/Graphics/SVG/1.1/DTD/svg11.dtd">
<!-- Generated by graphviz version 2.26.3 (20100126.1600)
 -->
<!-- Title: VehicleFSM Pages: 1 -->
<svg width="812pt" height="804pt"
 viewBox="0.00 0.00 812.00 804.00" xmlns="http://www.w3.org/2000/svg" xmlns:xlink="http://www.w3.org/1999/xlink">
<g id="graph1" class="graph" transform="scale(1 1) rotate(0) translate(4 800)">
<title>VehicleFSM</title>
<polygon fill="white" stroke="white" points="-4,5 -4,-800 809,-800 809,5 -4,5"/>
<g id="graph2" class="cluster"><title>cluster_VehicleFSM</title>
<polygon fill="none" stroke="black" points="8,-8 8,-788 712,-788 712,-8 8,-8"/>
<text text-anchor="middle" x="360" y="-771.4" font-family="Times Roman,serif" font-size="14.00">VehicleFSM</text>
</g>
<!-- VehicleFSM::WantInterface -->
<g id="node2" class="node"><title>VehicleFSM::WantInterface</title>
<polyline fill="none" stroke="black" points="362.5,-661 453.5,-661 "/>
<path fill="none" stroke="black" d="M453.5,-661C459.5,-661 465.5,-667 465.5,-673"/>
<polyline fill="none" stroke="black" points="465.5,-673 465.5,-685 "/>
<path fill="none" stroke="black" d="M465.5,-685C465.5,-691 459.5,-697 453.5,-697"/>
<polyline fill="none" stroke="black" points="453.5,-697 362.5,-697 "/>
<path fill="none" stroke="black" d="M362.5,-697C356.5,-697 350.5,-691 350.5,-685"/>
<polyline fill="none" stroke="black" points="350.5,-685 350.5,-673 "/>
<path fill="none" stroke="black" d="M350.5,-673C350.5,-667 356.5,-661 362.5,-661"/>
<text text-anchor="middle" x="408" y="-675.4" font-family="Times Roman,serif" font-size="14.00">WantInterface</text>
</g>
<!-- VehicleFSM::WantInterface&#45;&gt;VehicleFSM::WantInterface -->
<g id="edge5" class="edge"><title>VehicleFSM::WantInterface&#45;&gt;VehicleFSM::WantInterface</title>
<path fill="none" stroke="black" d="M465.544,-685.707C475.822,-684.835 483,-682.6 483,-679 483,-676.75 480.196,-675.033 475.584,-673.849"/>
<polygon fill="black" stroke="black" points="475.963,-670.366 465.544,-672.293 474.89,-677.283 475.963,-670.366"/>
<text text-anchor="start" x="483" y="-675.4" font-family="Times Roman,serif" font-size="14.00">OnLostInterface/</text>
</g>
<!-- VehicleFSM::WantVehicle -->
<g id="node3" class="node"><title>VehicleFSM::WantVehicle</title>
<polyline fill="none" stroke="black" points="388,-569 472,-569 "/>
<path fill="none" stroke="black" d="M472,-569C478,-569 484,-575 484,-581"/>
<polyline fill="none" stroke="black" points="484,-581 484,-593 "/>
<path fill="none" stroke="black" d="M484,-593C484,-599 478,-605 472,-605"/>
<polyline fill="none" stroke="black" points="472,-605 388,-605 "/>
<path fill="none" stroke="black" d="M388,-605C382,-605 376,-599 376,-593"/>
<polyline fill="none" stroke="black" points="376,-593 376,-581 "/>
<path fill="none" stroke="black" d="M376,-581C376,-575 382,-569 388,-569"/>
<text text-anchor="middle" x="430" y="-583.4" font-family="Times Roman,serif" font-size="14.00">WantVehicle</text>
</g>
<!-- VehicleFSM::WantInterface&#45;&gt;VehicleFSM::WantVehicle -->
<g id="edge3" class="edge"><title>VehicleFSM::WantInterface&#45;&gt;VehicleFSM::WantVehicle</title>
<path fill="none" stroke="black" d="M440.094,-660.893C446.507,-655.676 452.378,-649.365 456,-642 460.474,-632.901 457.937,-622.892 453.017,-613.935"/>
<polygon fill="black" stroke="black" points="455.857,-611.881 447.474,-605.401 449.986,-615.694 455.857,-611.881"/>
<text text-anchor="start" x="459" y="-629.4" font-family="Times Roman,serif" font-size="14.00">OnHasInterface/</text>
</g>
<!-- VehicleFSM::WantVehicle&#45;&gt;VehicleFSM::WantInterface -->
<g id="edge13" class="edge"><title>VehicleFSM::WantVehicle&#45;&gt;VehicleFSM::WantInterface</title>
<path fill="none" stroke="black" d="M375.878,-602.49C357.928,-608.798 341.183,-616.39 336,-624 327.568,-636.381 335.373,-647.162 348.502,-655.82"/>
<polygon fill="black" stroke="black" points="346.866,-658.917 357.267,-660.932 350.392,-652.87 346.866,-658.917"/>
<text text-anchor="start" x="336" y="-629.4" font-family="Times Roman,serif" font-size="14.00">OnLostInterface/</text>
</g>
<!-- VehicleFSM::WantVehicle&#45;&gt;VehicleFSM::WantVehicle -->
<g id="edge11" class="edge"><title>VehicleFSM::WantVehicle&#45;&gt;VehicleFSM::WantVehicle</title>
<path fill="none" stroke="black" d="M484.007,-595.241C494.529,-594.284 502,-591.537 502,-587 502,-584.093 498.934,-581.921 493.964,-580.484"/>
<polygon fill="black" stroke="black" points="494.458,-577.018 484.007,-578.759 493.263,-583.915 494.458,-577.018"/>
<text text-anchor="start" x="502" y="-583.4" font-family="Times Roman,serif" font-size="14.00">OnLostHeartbeat/</text>
</g>
<!-- VehicleFSM::DownloadingWaypoints -->
<g id="node4" class="node"><title>VehicleFSM::DownloadingWaypoints</title>
<polyline fill="none" stroke="black" points="200,-477 356,-477 "/>
<path fill="none" stroke="black" d="M356,-477C362,-477 368,-483 368,-489"/>
<polyline fill="none" stroke="black" points="368,-489 368,-501 "/>
<path fill="none" stroke="black" d="M368,-501C368,-507 362,-513 356,-513"/>
<polyline fill="none" stroke="black" points="356,-513 200,-513 "/>
<path fill="none" stroke="black" d="M200,-513C194,-513 188,-507 188,-501"/>
<polyline fill="none" stroke="black" points="188,-501 188,-489 "/>
<path fill="none" stroke="black" d="M188,-489C188,-483 194,-477 200,-477"/>
<text text-anchor="middle" x="278" y="-491.4" font-family="Times Roman,serif" font-size="14.00">DownloadingWaypoints</text>
</g>
<!-- VehicleFSM::WantVehicle&#45;&gt;VehicleFSM::DownloadingWaypoints -->
<g id="edge7" class="edge"><title>VehicleFSM::WantVehicle&#45;&gt;VehicleFSM::DownloadingWaypoints</title>
<path fill="none" stroke="black" d="M375.917,-571.44C371.223,-570.226 366.535,-569.061 362,-568 320.157,-558.209 294.413,-583.095 267,-550 260.73,-542.431 261.115,-532.28 263.881,-522.76"/>
<polygon fill="black" stroke="black" points="267.23,-523.795 267.446,-513.202 260.672,-521.348 267.23,-523.795"/>
<text text-anchor="start" x="267" y="-537.4" font-family="Times Roman,serif" font-size="14.00">OnHasHeartbeat/</text>
</g>
<!-- VehicleFSM::DownloadedParameters -->
<g id="node6" class="node"><title>VehicleFSM::DownloadedParameters</title>
<polyline fill="none" stroke="black" points="53,-293 211,-293 "/>
<path fill="none" stroke="black" d="M211,-293C217,-293 223,-299 223,-305"/>
<polyline fill="none" stroke="black" points="223,-305 223,-317 "/>
<path fill="none" stroke="black" d="M223,-317C223,-323 217,-329 211,-329"/>
<polyline fill="none" stroke="black" points="211,-329 53,-329 "/>
<path fill="none" stroke="black" d="M53,-329C47,-329 41,-323 41,-317"/>
<polyline fill="none" stroke="black" points="41,-317 41,-305 "/>
<path fill="none" stroke="black" d="M41,-305C41,-299 47,-293 53,-293"/>
<text text-anchor="middle" x="132" y="-307.4" font-family="Times Roman,serif" font-size="14.00">DownloadedParameters</text>
</g>
<!-- VehicleFSM::WantVehicle&#45;&gt;VehicleFSM::DownloadedParameters -->
<g id="edge9" class="edge"><title>VehicleFSM::WantVehicle&#45;&gt;VehicleFSM::DownloadedParameters</title>
<path fill="none" stroke="black" d="M484.006,-577.183C512.584,-570.772 543.495,-561.466 552,-550 571.593,-523.584 573.745,-500.675 552,-476 530.97,-452.136 439.358,-470.242 410,-458 398.019,-453.004 398.541,-445.942 387,-440 361.869,-427.06 349.451,-437.781 326,-422 291.103,-398.517 302.124,-371.143 267,-348 256.592,-341.142 244.936,-335.547 232.949,-330.984"/>
<polygon fill="black" stroke="black" points="233.877,-327.599 223.282,-327.541 231.529,-334.194 233.877,-327.599"/>
<text text-anchor="start" x="410" y="-445.4" font-family="Times Roman,serif" font-size="14.00">OnHasHeartbeat/</text>
</g>
<!-- VehicleFSM::DownloadingWaypoints&#45;&gt;VehicleFSM::WantInterface -->
<g id="edge19" class="edge"><title>VehicleFSM::DownloadingWaypoints&#45;&gt;VehicleFSM::WantInterface</title>
<path fill="none" stroke="black" d="M265.507,-513.316C251.366,-536.551 232.549,-577.073 251,-606 270.788,-637.024 307.552,-655.07 340.531,-665.455"/>
<polygon fill="black" stroke="black" points="339.584,-668.825 350.167,-668.312 341.574,-662.114 339.584,-668.825"/>
<text text-anchor="start" x="251" y="-583.4" font-family="Times Roman,serif" font-size="14.00">OnLostInterface/</text>
</g>
<!-- VehicleFSM::DownloadingWaypoints&#45;&gt;VehicleFSM::WantVehicle -->
<g id="edge17" class="edge"><title>VehicleFSM::DownloadingWaypoints&#45;&gt;VehicleFSM::WantVehicle</title>
<path fill="none" stroke="black" d="M351.97,-513.094C364.641,-518.047 377.189,-524.257 388,-532 398.425,-539.467 407.458,-550.268 414.448,-560.326"/>
<polygon fill="black" stroke="black" points="411.638,-562.424 420.047,-568.87 417.493,-558.587 411.638,-562.424"/>
<text text-anchor="start" x="406" y="-537.4" font-family="Times Roman,serif" font-size="14.00">OnLostHeartbeat/</text>
</g>
<!-- VehicleFSM::DownloadingParameters -->
<g id="node5" class="node"><title>VehicleFSM::DownloadingParameters</title>
<polyline fill="none" stroke="black" points="48,-385 210,-385 "/>
<path fill="none" stroke="black" d="M210,-385C216,-385 222,-391 222,-397"/>
<polyline fill="none" stroke="black" points="222,-397 222,-409 "/>
<path fill="none" stroke="black" d="M222,-409C222,-415 216,-421 210,-421"/>
<polyline fill="none" stroke="black" points="210,-421 48,-421 "/>
<path fill="none" stroke="black" d="M48,-421C42,-421 36,-415 36,-409"/>
<polyline fill="none" stroke="black" points="36,-409 36,-397 "/>
<path fill="none" stroke="black" d="M36,-397C36,-391 42,-385 48,-385"/>
<text text-anchor="middle" x="129" y="-399.4" font-family="Times Roman,serif" font-size="14.00">DownloadingParameters</text>
</g>
<!-- VehicleFSM::DownloadingWaypoints&#45;&gt;VehicleFSM::DownloadingParameters -->
<g id="edge15" class="edge"><title>VehicleFSM::DownloadingWaypoints&#45;&gt;VehicleFSM::DownloadingParameters</title>
<path fill="none" stroke="black" d="M187.844,-478.314C183.165,-477.516 178.529,-476.739 174,-476 146.303,-471.477 67.3759,-479.212 49,-458 38.1985,-445.532 47.3501,-434.558 62.7765,-425.758"/>
<polygon fill="black" stroke="black" points="64.5906,-428.762 71.9055,-421.097 61.4076,-422.527 64.5906,-428.762"/>
<text text-anchor="start" x="49" y="-445.4" font-family="Times Roman,serif" font-size="14.00">OnWaypointsDownloaded/</text>
</g>
<!-- VehicleFSM::DownloadingParameters&#45;&gt;VehicleFSM::WantInterface -->
<g id="edge25" class="edge"><title>VehicleFSM::DownloadingParameters&#45;&gt;VehicleFSM::WantInterface</title>
<path fill="none" stroke="black" d="M64.3602,-421.059C43.1086,-430.205 27.9021,-442.651 41,-458 74.0108,-496.685 120.989,-437.315 154,-476 164.963,-488.847 161.7,-498.968 154,-514 147.758,-526.186 135.242,-519.814 129,-532 125.353,-539.12 125.261,-542.927 129,-550 169.649,-626.892 271.627,-658.164 340.366,-670.738"/>
<polygon fill="black" stroke="black" points="339.803,-674.193 350.256,-672.461 341.005,-667.297 339.803,-674.193"/>
<text text-anchor="start" x="129" y="-537.4" font-family="Times Roman,serif" font-size="14.00">OnLostInterface/</text>
</g>
<!-- VehicleFSM::DownloadingParameters&#45;&gt;VehicleFSM::WantVehicle -->
<g id="edge23" class="edge"><title>VehicleFSM::DownloadingParameters&#45;&gt;VehicleFSM::WantVehicle</title>
<path fill="none" stroke="black" d="M201.496,-421.075C212.81,-425.993 223.787,-432.197 233,-440 239.983,-445.915 235.44,-452.843 243,-458 292.642,-491.861 322.645,-450.379 377,-476 399.474,-486.593 395.636,-503.178 418,-514 464.963,-536.726 500.054,-492.381 534,-532 551.148,-552.014 524.587,-565.825 494.023,-574.602"/>
<polygon fill="black" stroke="black" points="492.768,-571.315 484.009,-577.276 494.574,-578.078 492.768,-571.315"/>
<text text-anchor="start" x="418" y="-491.4" font-family="Times Roman,serif" font-size="14.00">OnLostHeartbeat/</text>
</g>
<!-- VehicleFSM::DownloadingParameters&#45;&gt;VehicleFSM::DownloadedParameters -->
<g id="edge21" class="edge"><title>VehicleFSM::DownloadingParameters&#45;&gt;VehicleFSM::DownloadedParameters</title>
<path fill="none" stroke="black" d="M86.5296,-384.836C70.7613,-375.293 58.538,-362.554 67,-348 69.7739,-343.229 73.4182,-339.023 77.5676,-335.325"/>
<polygon fill="black" stroke="black" points="79.7214,-338.084 85.5028,-329.205 75.4466,-332.54 79.7214,-338.084"/>
<text text-anchor="start" x="67" y="-353.4" font-family="Times Roman,serif" font-size="14.00">OnParametersDownloaded/</text>
</g>
<!-- VehicleFSM::DownloadedParameters&#45;&gt;VehicleFSM::WantInterface -->
<g id="edge35" class="edge"><title>VehicleFSM::DownloadedParameters&#45;&gt;VehicleFSM::WantInterface</title>
<path fill="none" stroke="black" d="M84.5949,-329.089C61.7224,-340.78 37.0891,-358.624 27,-384 5.62307,-437.768 8.37242,-462.123 34,-514 89.8983,-627.152 248.611,-662.721 340.322,-673.893"/>
<polygon fill="black" stroke="black" points="340.01,-677.38 350.345,-675.049 340.812,-670.426 340.01,-677.38"/>
<text text-anchor="start" x="34" y="-491.4" font-family="Times Roman,serif" font-size="14.00">OnLostInterface/</text>
</g>
<!-- VehicleFSM::DownloadedParameters&#45;&gt;VehicleFSM::WantVehicle -->
<g id="edge33" class="edge"><title>VehicleFSM::DownloadedParameters&#45;&gt;VehicleFSM::WantVehicle</title>
<path fill="none" stroke="black" d="M219.594,-329.007C236.896,-334.324 251.449,-340.706 257,-348 286.615,-386.908 225.217,-422.65 259,-458 302.538,-503.558 498.878,-430.049 542,-476 553.253,-487.991 551.633,-536.672 542,-550 535.68,-558.743 515.591,-566.557 494.136,-572.726"/>
<polygon fill="black" stroke="black" points="492.946,-569.423 484.227,-575.441 494.797,-576.174 492.946,-569.423"/>
<text text-anchor="start" x="259" y="-445.4" font-family="Times Roman,serif" font-size="14.00">OnLostHeartbeat/</text>
</g>
<!-- VehicleFSM::Disarmed -->
<g id="node7" class="node"><title>VehicleFSM::Disarmed</title>
<polyline fill="none" stroke="black" points="284,-109 368,-109 "/>
<path fill="none" stroke="black" d="M368,-109C374,-109 380,-115 380,-121"/>
<polyline fill="none" stroke="black" points="380,-121 380,-133 "/>
<path fill="none" stroke="black" d="M380,-133C380,-139 374,-145 368,-145"/>
<polyline fill="none" stroke="black" points="368,-145 284,-145 "/>
<path fill="none" stroke="black" d="M284,-145C278,-145 272,-139 272,-133"/>
<polyline fill="none" stroke="black" points="272,-133 272,-121 "/>
<path fill="none" stroke="black" d="M272,-121C272,-115 278,-109 284,-109"/>
<text text-anchor="middle" x="326" y="-123.4" font-family="Times Roman,serif" font-size="14.00">Disarmed</text>
</g>
<!-- VehicleFSM::DownloadedParameters&#45;&gt;VehicleFSM::Disarmed -->
<g id="edge29" class="edge"><title>VehicleFSM::DownloadedParameters&#45;&gt;VehicleFSM::Disarmed</title>
<path fill="none" stroke="black" d="M128.081,-292.858C124.043,-269.07 120.85,-227.18 141,-200 148.775,-189.512 211.942,-165.934 262.333,-148.396"/>
<polygon fill="black" stroke="black" points="263.593,-151.663 271.898,-145.085 261.303,-145.048 263.593,-151.663"/>
<text text-anchor="start" x="141" y="-215.4" font-family="Times Roman,serif" font-size="14.00">HBSaysDisarmed/</text>
</g>
<!-- VehicleFSM::Armed -->
<g id="node8" class="node"><title>VehicleFSM::Armed</title>
<polyline fill="none" stroke="black" points="205,-17 289,-17 "/>
<path fill="none" stroke="black" d="M289,-17C295,-17 301,-23 301,-29"/>
<polyline fill="none" stroke="black" points="301,-29 301,-41 "/>
<path fill="none" stroke="black" d="M301,-41C301,-47 295,-53 289,-53"/>
<polyline fill="none" stroke="black" points="289,-53 205,-53 "/>
<path fill="none" stroke="black" d="M205,-53C199,-53 193,-47 193,-41"/>
<polyline fill="none" stroke="black" points="193,-41 193,-29 "/>
<path fill="none" stroke="black" d="M193,-29C193,-23 199,-17 205,-17"/>
<text text-anchor="middle" x="247" y="-31.4" font-family="Times Roman,serif" font-size="14.00">Armed</text>
</g>
<!-- VehicleFSM::DownloadedParameters&#45;&gt;VehicleFSM::Armed -->
<g id="edge27" class="edge"><title>VehicleFSM::DownloadedParameters&#45;&gt;VehicleFSM::Armed</title>
<path fill="none" stroke="black" d="M114.403,-292.955C89.6622,-265.29 49.6615,-210.687 69,-164 90.3625,-112.426 145.422,-77.6748 188.698,-57.3586"/>
<polygon fill="black" stroke="black" points="190.364,-60.4461 198.016,-53.1186 187.465,-54.0746 190.364,-60.4461"/>
<text text-anchor="start" x="69" y="-169.4" font-family="Times Roman,serif" font-size="14.00">HBSaysArmed/</text>
</g>
<!-- VehicleFSM::Flying -->
<g id="node9" class="node"><title>VehicleFSM::Flying</title>
<polyline fill="none" stroke="black" points="284,-201 368,-201 "/>
<path fill="none" stroke="black" d="M368,-201C374,-201 380,-207 380,-213"/>
<polyline fill="none" stroke="black" points="380,-213 380,-225 "/>
<path fill="none" stroke="black" d="M380,-225C380,-231 374,-237 368,-237"/>
<polyline fill="none" stroke="black" points="368,-237 284,-237 "/>
<path fill="none" stroke="black" d="M284,-237C278,-237 272,-231 272,-225"/>
<polyline fill="none" stroke="black" points="272,-225 272,-213 "/>
<path fill="none" stroke="black" d="M272,-213C272,-207 278,-201 284,-201"/>
<text text-anchor="middle" x="326" y="-215.4" font-family="Times Roman,serif" font-size="14.00">Flying</text>
</g>
<!-- VehicleFSM::DownloadedParameters&#45;&gt;VehicleFSM::Flying -->
<g id="edge31" class="edge"><title>VehicleFSM::DownloadedParameters&#45;&gt;VehicleFSM::Flying</title>
<path fill="none" stroke="black" d="M167.92,-292.99C189.82,-282.103 218.425,-268.046 244,-256 254.273,-251.162 265.324,-246.087 275.883,-241.301"/>
<polygon fill="black" stroke="black" points="277.331,-244.488 285.004,-237.183 274.45,-238.108 277.331,-244.488"/>
<text text-anchor="start" x="244" y="-261.4" font-family="Times Roman,serif" font-size="14.00">HBSaysFlying/</text>
</g>
<!-- VehicleFSM::Disarmed&#45;&gt;VehicleFSM::WantInterface -->
<g id="edge41" class="edge"><title>VehicleFSM::Disarmed&#45;&gt;VehicleFSM::WantInterface</title>
<path fill="none" stroke="black" d="M377.349,-145.067C435.502,-168.664 527.201,-216.147 566,-292 580.99,-321.305 564.592,-333.381 569,-366 572.421,-391.321 563.36,-404.524 582,-422 617.82,-455.583 659.235,-402.559 691,-440 715.843,-469.282 665.59,-574.947 643,-606 628.93,-625.341 624.43,-631.378 603,-642 580.996,-652.906 523.04,-663.138 475.991,-670.066"/>
<polygon fill="black" stroke="black" points="475.224,-666.64 465.829,-671.536 476.227,-673.568 475.224,-666.64"/>
<text text-anchor="start" x="582" y="-399.4" font-family="Times Roman,serif" font-size="14.00">OnLostInterface/</text>
</g>
<!-- VehicleFSM::Disarmed&#45;&gt;VehicleFSM::WantVehicle -->
<g id="edge39" class="edge"><title>VehicleFSM::Disarmed&#45;&gt;VehicleFSM::WantVehicle</title>
<path fill="none" stroke="black" d="M374.942,-145.066C382.549,-150.036 389.399,-156.259 394,-164 440.012,-241.418 319.788,-297.283 378,-366 409.454,-403.13 444.313,-358.896 486,-384 504.2,-394.96 500.069,-406.886 515,-422 524.123,-431.234 529.569,-430.13 538,-440 543.944,-446.959 541.687,-451.374 548,-458 558.464,-468.983 569.626,-462.743 577,-476 593.001,-504.765 595.236,-524.85 574,-550 563.398,-562.556 527.72,-571.775 494.532,-577.87"/>
<polygon fill="black" stroke="black" points="493.586,-574.483 484.343,-579.662 494.798,-581.377 493.586,-574.483"/>
<text text-anchor="start" x="378" y="-353.4" font-family="Times Roman,serif" font-size="14.00">OnLostHeartbeat/</text>
</g>
<!-- VehicleFSM::Disarmed&#45;&gt;VehicleFSM::Armed -->
<g id="edge37" class="edge"><title>VehicleFSM::Disarmed&#45;&gt;VehicleFSM::Armed</title>
<path fill="none" stroke="black" d="M271.846,-111.724C267.167,-110.448 262.503,-109.192 258,-108 226.113,-99.561 206.299,-115.999 186,-90 177.218,-78.7519 184.624,-67.8928 196.905,-58.8375"/>
<polygon fill="black" stroke="black" points="199.116,-61.5731 205.557,-53.1615 195.276,-55.7201 199.116,-61.5731"/>
<text text-anchor="start" x="186" y="-77.4" font-family="Times Roman,serif" font-size="14.00">HBSaysArmed/</text>
</g>
<!-- VehicleFSM::Armed&#45;&gt;VehicleFSM::WantInterface -->
<g id="edge49" class="edge"><title>VehicleFSM::Armed&#45;&gt;VehicleFSM::WantInterface</title>
<path fill="none" stroke="black" d="M301.15,-37.8657C400.316,-44.6045 601,-65.802 601,-127 601,-265 601,-265 601,-265 601,-333.233 672.67,-320.642 698,-384 708.756,-410.904 703,-420.026 703,-449 703,-587 703,-587 703,-587 703,-634.347 562.755,-660.14 475.662,-671.593"/>
<polygon fill="black" stroke="black" points="475.053,-668.143 465.579,-672.887 475.943,-675.086 475.053,-668.143"/>
<text text-anchor="start" x="688" y="-353.4" font-family="Times Roman,serif" font-size="14.00">OnLostInterface/</text>
</g>
<!-- VehicleFSM::Armed&#45;&gt;VehicleFSM::WantVehicle -->
<g id="edge47" class="edge"><title>VehicleFSM::Armed&#45;&gt;VehicleFSM::WantVehicle</title>
<path fill="none" stroke="black" d="M301.172,-39.4368C347.93,-44.4169 410.616,-54.2331 428,-72 445.376,-89.7586 438,-102.155 438,-127 438,-265 438,-265 438,-265 438,-293.889 419.984,-307.417 438,-330 460.458,-358.15 487.38,-327.519 517,-348 549.445,-370.434 532.762,-400.759 566,-422 610.702,-450.568 649.431,-399.758 684,-440 689.213,-446.068 687.196,-450.666 684,-458 660.001,-513.063 637.954,-521.65 585,-550 557.073,-564.951 523.12,-573.93 494.119,-579.288"/>
<polygon fill="black" stroke="black" points="493.336,-575.871 484.085,-581.036 494.538,-582.767 493.336,-575.871"/>
<text text-anchor="start" x="438" y="-307.4" font-family="Times Roman,serif" font-size="14.00">OnLostHeartbeat/</text>
</g>
<!-- VehicleFSM::Armed&#45;&gt;VehicleFSM::Disarmed -->
<g id="edge43" class="edge"><title>VehicleFSM::Armed&#45;&gt;VehicleFSM::Disarmed</title>
<path fill="none" stroke="black" d="M269.178,-53.3173C275.548,-59.0181 282.306,-65.516 288,-72 295.661,-80.7235 303.136,-91.0272 309.402,-100.344"/>
<polygon fill="black" stroke="black" points="306.596,-102.447 315.006,-108.891 312.45,-98.609 306.596,-102.447"/>
<text text-anchor="start" x="302" y="-77.4" font-family="Times Roman,serif" font-size="14.00">HBSaysDisarmed/</text>
</g>
<!-- VehicleFSM::Armed&#45;&gt;VehicleFSM::Flying -->
<g id="edge45" class="edge"><title>VehicleFSM::Armed&#45;&gt;VehicleFSM::Flying</title>
<path fill="none" stroke="black" d="M203.211,-53.1057C194.38,-58.2374 185.749,-64.5131 179,-72 156.531,-96.9249 145.786,-117.815 164,-146 175.587,-163.93 221.996,-183.81 262.189,-198.291"/>
<polygon fill="black" stroke="black" points="261.12,-201.625 271.714,-201.665 263.457,-195.027 261.12,-201.625"/>
<text text-anchor="start" x="164" y="-123.4" font-family="Times Roman,serif" font-size="14.00">HBSaysFlying/</text>
</g>
<!-- VehicleFSM::Flying&#45;&gt;VehicleFSM::WantInterface -->
<g id="edge55" class="edge"><title>VehicleFSM::Flying&#45;&gt;VehicleFSM::WantInterface</title>
<path fill="none" stroke="black" d="M338.396,-237.14C358.104,-265.45 396.358,-318.133 416,-330 450.915,-351.093 476.212,-320.131 506,-348 530.879,-371.275 507.815,-393.191 526,-422 529.281,-427.197 562.755,-454.795 568,-458 586.03,-469.016 598.168,-460.028 612,-476 639.592,-507.86 629.85,-526.168 635,-568 637.064,-584.762 643.321,-591.303 635,-606 619.678,-633.062 603.889,-630.487 575,-642 543.387,-654.598 506.612,-663.332 475.632,-669.136"/>
<polygon fill="black" stroke="black" points="475.006,-665.692 465.79,-670.919 476.254,-672.58 475.006,-665.692"/>
<text text-anchor="start" x="568" y="-445.4" font-family="Times Roman,serif" font-size="14.00">OnLostInterface/</text>
</g>
<!-- VehicleFSM::Flying&#45;&gt;VehicleFSM::WantVehicle -->
<g id="edge53" class="edge"><title>VehicleFSM::Flying&#45;&gt;VehicleFSM::WantVehicle</title>
<path fill="none" stroke="black" d="M335.66,-237.009C338.446,-242.911 341.213,-249.6 343,-256 362.974,-327.523 309.285,-369.697 362,-422 388.811,-448.601 499.51,-419.148 531,-440 538.63,-445.053 534.985,-451.103 541,-458 549.764,-468.049 559.037,-464.074 565,-476 579.714,-505.427 583.623,-524.365 563,-550 553.889,-561.325 523.557,-570.224 494.157,-576.454"/>
<polygon fill="black" stroke="black" points="493.358,-573.045 484.254,-578.464 494.75,-579.905 493.358,-573.045"/>
<text text-anchor="start" x="362" y="-399.4" font-family="Times Roman,serif" font-size="14.00">OnLostHeartbeat/</text>
</g>
<!-- VehicleFSM::Flying&#45;&gt;VehicleFSM::Disarmed -->
<g id="edge51" class="edge"><title>VehicleFSM::Flying&#45;&gt;VehicleFSM::Disarmed</title>
<path fill="none" stroke="black" d="M289.149,-200.974C282.254,-195.838 275.974,-189.54 272,-182 266.034,-170.68 272.059,-160.143 281.95,-151.383"/>
<polygon fill="black" stroke="black" points="284.369,-153.937 290.133,-145.047 280.083,-148.402 284.369,-153.937"/>
<text text-anchor="start" x="272" y="-169.4" font-family="Times Roman,serif" font-size="14.00">HBSaysDisarmed/</text>
</g>
<!-- %start -->
<g id="node10" class="node"><title>%start</title>
<ellipse fill="black" stroke="black" cx="408" cy="-745" rx="9" ry="9"/>
</g>
<!-- %start&#45;&gt;VehicleFSM::WantInterface -->
<g id="edge57" class="edge"><title>%start&#45;&gt;VehicleFSM::WantInterface</title>
<path fill="none" stroke="black" d="M408,-735.823C408,-728.41 408,-717.562 408,-707.326"/>
<polygon fill="black" stroke="black" points="411.5,-707.051 408,-697.051 404.5,-707.051 411.5,-707.051"/>
</g>
</g>
</svg>
