<?xml version="1.0" encoding="UTF-8" standalone="no"?>
<!DOCTYPE svg PUBLIC "-//W3C//DTD SVG 1.1//EN"
 "http://www.w3.org/Graphics/SVG/1.1/DTD/svg11.dtd">
<!-- Generated by graphviz version 2.26.3 (20100126.1600)
 -->
<!-- Title: VehicleFSM Pages: 1 -->
<svg width="728pt" height="804pt"
 viewBox="0.00 0.00 728.00 804.00" xmlns="http://www.w3.org/2000/svg" xmlns:xlink="http://www.w3.org/1999/xlink">
<g id="graph1" class="graph" transform="scale(1 1) rotate(0) translate(4 800)">
<title>VehicleFSM</title>
<polygon fill="white" stroke="white" points="-4,5 -4,-800 725,-800 725,5 -4,5"/>
<g id="graph2" class="cluster"><title>cluster_VehicleFSM</title>
<polygon fill="none" stroke="black" points="8,-8 8,-788 676,-788 676,-8 8,-8"/>
<text text-anchor="middle" x="342" y="-771.4" font-family="Times Roman,serif" font-size="14.00">VehicleFSM</text>
</g>
<!-- VehicleFSM::WantInterface -->
<g id="node2" class="node"><title>VehicleFSM::WantInterface</title>
<polyline fill="none" stroke="black" points="182,-661 274,-661 "/>
<path fill="none" stroke="black" d="M274,-661C280,-661 286,-667 286,-673"/>
<polyline fill="none" stroke="black" points="286,-673 286,-685 "/>
<path fill="none" stroke="black" d="M286,-685C286,-691 280,-697 274,-697"/>
<polyline fill="none" stroke="black" points="274,-697 182,-697 "/>
<path fill="none" stroke="black" d="M182,-697C176,-697 170,-691 170,-685"/>
<polyline fill="none" stroke="black" points="170,-685 170,-673 "/>
<path fill="none" stroke="black" d="M170,-673C170,-667 176,-661 182,-661"/>
<text text-anchor="middle" x="228" y="-675.4" font-family="Times Roman,serif" font-size="14.00">WantInterface</text>
</g>
<!-- VehicleFSM::WantInterface&#45;&gt;VehicleFSM::WantInterface -->
<g id="edge5" class="edge"><title>VehicleFSM::WantInterface&#45;&gt;VehicleFSM::WantInterface</title>
<path fill="none" stroke="black" d="M286.312,-685.707C296.726,-684.835 304,-682.6 304,-679 304,-676.75 301.159,-675.033 296.485,-673.849"/>
<polygon fill="black" stroke="black" points="296.726,-670.345 286.312,-672.293 295.667,-677.265 296.726,-670.345"/>
<text text-anchor="start" x="304" y="-675.4" font-family="Times Roman,serif" font-size="14.00">OnLostInterface/</text>
</g>
<!-- VehicleFSM::WantVehicle -->
<g id="node3" class="node"><title>VehicleFSM::WantVehicle</title>
<polyline fill="none" stroke="black" points="167,-569 251,-569 "/>
<path fill="none" stroke="black" d="M251,-569C257,-569 263,-575 263,-581"/>
<polyline fill="none" stroke="black" points="263,-581 263,-593 "/>
<path fill="none" stroke="black" d="M263,-593C263,-599 257,-605 251,-605"/>
<polyline fill="none" stroke="black" points="251,-605 167,-605 "/>
<path fill="none" stroke="black" d="M167,-605C161,-605 155,-599 155,-593"/>
<polyline fill="none" stroke="black" points="155,-593 155,-581 "/>
<path fill="none" stroke="black" d="M155,-581C155,-575 161,-569 167,-569"/>
<text text-anchor="middle" x="209" y="-583.4" font-family="Times Roman,serif" font-size="14.00">WantVehicle</text>
</g>
<!-- VehicleFSM::WantInterface&#45;&gt;VehicleFSM::WantVehicle -->
<g id="edge3" class="edge"><title>VehicleFSM::WantInterface&#45;&gt;VehicleFSM::WantVehicle</title>
<path fill="none" stroke="black" d="M180.801,-660.915C173.288,-655.931 166.515,-649.707 162,-642 155.727,-631.291 161.298,-620.655 170.506,-611.631"/>
<polygon fill="black" stroke="black" points="172.829,-614.249 178.12,-605.07 168.26,-608.947 172.829,-614.249"/>
<text text-anchor="start" x="162" y="-629.4" font-family="Times Roman,serif" font-size="14.00">OnHasInterface/</text>
</g>
<!-- VehicleFSM::WantVehicle&#45;&gt;VehicleFSM::WantInterface -->
<g id="edge11" class="edge"><title>VehicleFSM::WantVehicle&#45;&gt;VehicleFSM::WantInterface</title>
<path fill="none" stroke="black" d="M255.497,-605.205C262.895,-610.178 269.562,-616.367 274,-624 280.122,-634.529 274.845,-645.044 265.988,-654.018"/>
<polygon fill="black" stroke="black" points="263.433,-651.605 258.266,-660.855 268.073,-656.846 263.433,-651.605"/>
<text text-anchor="start" x="277" y="-629.4" font-family="Times Roman,serif" font-size="14.00">OnLostInterface/</text>
</g>
<!-- VehicleFSM::WantVehicle&#45;&gt;VehicleFSM::WantVehicle -->
<g id="edge9" class="edge"><title>VehicleFSM::WantVehicle&#45;&gt;VehicleFSM::WantVehicle</title>
<path fill="none" stroke="black" d="M263.007,-595.241C273.529,-594.284 281,-591.537 281,-587 281,-584.093 277.934,-581.921 272.964,-580.484"/>
<polygon fill="black" stroke="black" points="273.458,-577.018 263.007,-578.759 272.263,-583.915 273.458,-577.018"/>
<text text-anchor="start" x="281" y="-583.4" font-family="Times Roman,serif" font-size="14.00">OnLostHeartbeat/</text>
</g>
<!-- VehicleFSM::DownloadingWaypoints -->
<g id="node4" class="node"><title>VehicleFSM::DownloadingWaypoints</title>
<polyline fill="none" stroke="black" points="460,-477 616,-477 "/>
<path fill="none" stroke="black" d="M616,-477C622,-477 628,-483 628,-489"/>
<polyline fill="none" stroke="black" points="628,-489 628,-501 "/>
<path fill="none" stroke="black" d="M628,-501C628,-507 622,-513 616,-513"/>
<polyline fill="none" stroke="black" points="616,-513 460,-513 "/>
<path fill="none" stroke="black" d="M460,-513C454,-513 448,-507 448,-501"/>
<polyline fill="none" stroke="black" points="448,-501 448,-489 "/>
<path fill="none" stroke="black" d="M448,-489C448,-483 454,-477 460,-477"/>
<text text-anchor="middle" x="538" y="-491.4" font-family="Times Roman,serif" font-size="14.00">DownloadingWaypoints</text>
</g>
<!-- VehicleFSM::WantVehicle&#45;&gt;VehicleFSM::DownloadingWaypoints -->
<g id="edge7" class="edge"><title>VehicleFSM::WantVehicle&#45;&gt;VehicleFSM::DownloadingWaypoints</title>
<path fill="none" stroke="black" d="M216.758,-568.952C223.192,-556.345 233.619,-540.334 248,-532 283.929,-511.178 392.872,-519.737 434,-514 435.278,-513.822 436.565,-513.639 437.858,-513.452"/>
<polygon fill="black" stroke="black" points="438.515,-516.893 447.883,-511.943 437.473,-509.97 438.515,-516.893"/>
<text text-anchor="start" x="248" y="-537.4" font-family="Times Roman,serif" font-size="14.00">OnHasHeartbeat/</text>
</g>
<!-- VehicleFSM::DownloadingWaypoints&#45;&gt;VehicleFSM::WantInterface -->
<g id="edge17" class="edge"><title>VehicleFSM::DownloadingWaypoints&#45;&gt;VehicleFSM::WantInterface</title>
<path fill="none" stroke="black" d="M532.652,-513.09C528.188,-527.056 521.665,-544.842 516,-550 495.099,-569.031 478.386,-552.122 455,-568 420.429,-591.473 432.387,-619.776 397,-642 380.189,-652.558 335.679,-662.078 296.558,-668.816"/>
<polygon fill="black" stroke="black" points="295.504,-665.444 286.223,-670.555 296.665,-672.347 295.504,-665.444"/>
<text text-anchor="start" x="455" y="-583.4" font-family="Times Roman,serif" font-size="14.00">OnLostInterface/</text>
</g>
<!-- VehicleFSM::DownloadingWaypoints&#45;&gt;VehicleFSM::WantVehicle -->
<g id="edge15" class="edge"><title>VehicleFSM::DownloadingWaypoints&#45;&gt;VehicleFSM::WantVehicle</title>
<path fill="none" stroke="black" d="M447.886,-511.589C428.9,-516.79 409.372,-523.477 392,-532 380.347,-537.718 380.713,-544.405 369,-550 339.068,-564.298 303.295,-573.243 273.172,-578.746"/>
<polygon fill="black" stroke="black" points="272.441,-575.32 263.189,-580.483 273.641,-582.217 272.441,-575.32"/>
<text text-anchor="start" x="392" y="-537.4" font-family="Times Roman,serif" font-size="14.00">OnLostHeartbeat/</text>
</g>
<!-- VehicleFSM::DownloadingParameters -->
<g id="node5" class="node"><title>VehicleFSM::DownloadingParameters</title>
<polyline fill="none" stroke="black" points="440,-385 602,-385 "/>
<path fill="none" stroke="black" d="M602,-385C608,-385 614,-391 614,-397"/>
<polyline fill="none" stroke="black" points="614,-397 614,-409 "/>
<path fill="none" stroke="black" d="M614,-409C614,-415 608,-421 602,-421"/>
<polyline fill="none" stroke="black" points="602,-421 440,-421 "/>
<path fill="none" stroke="black" d="M440,-421C434,-421 428,-415 428,-409"/>
<polyline fill="none" stroke="black" points="428,-409 428,-397 "/>
<path fill="none" stroke="black" d="M428,-397C428,-391 434,-385 440,-385"/>
<text text-anchor="middle" x="521" y="-399.4" font-family="Times Roman,serif" font-size="14.00">DownloadingParameters</text>
</g>
<!-- VehicleFSM::DownloadingWaypoints&#45;&gt;VehicleFSM::DownloadingParameters -->
<g id="edge13" class="edge"><title>VehicleFSM::DownloadingWaypoints&#45;&gt;VehicleFSM::DownloadingParameters</title>
<path fill="none" stroke="black" d="M478.214,-476.991C470.202,-472.082 463.028,-465.865 458,-458 450.502,-446.272 457.457,-435.614 469.09,-426.87"/>
<polygon fill="black" stroke="black" points="471.359,-429.566 477.772,-421.132 467.499,-423.726 471.359,-429.566"/>
<text text-anchor="start" x="458" y="-445.4" font-family="Times Roman,serif" font-size="14.00">OnWaypointsDownloaded/</text>
</g>
<!-- VehicleFSM::DownloadingParameters&#45;&gt;VehicleFSM::WantInterface -->
<g id="edge23" class="edge"><title>VehicleFSM::DownloadingParameters&#45;&gt;VehicleFSM::WantInterface</title>
<path fill="none" stroke="black" d="M605.285,-421.009C622.303,-426.362 636.643,-432.76 642,-440 661.607,-466.499 659.039,-489.486 637,-514 609.436,-544.659 572.172,-500.144 546,-532 540.922,-538.181 542.353,-542.88 546,-550 552.242,-562.186 564.758,-555.814 571,-568 578.7,-583.032 581.542,-592.805 571,-606 537.382,-648.08 386.392,-666.864 296.329,-674.453"/>
<polygon fill="black" stroke="black" points="295.879,-670.978 286.198,-675.281 296.45,-677.955 295.879,-670.978"/>
<text text-anchor="start" x="546" y="-537.4" font-family="Times Roman,serif" font-size="14.00">OnLostInterface/</text>
</g>
<!-- VehicleFSM::DownloadingParameters&#45;&gt;VehicleFSM::WantVehicle -->
<g id="edge21" class="edge"><title>VehicleFSM::DownloadingParameters&#45;&gt;VehicleFSM::WantVehicle</title>
<path fill="none" stroke="black" d="M485.714,-421.128C461.535,-432.961 428.45,-448.01 398,-458 362.135,-469.767 348.472,-458.553 315,-476 292.968,-487.484 295.047,-500.798 274,-514 255.402,-525.666 243.207,-516.166 228,-532 223.995,-536.17 219.773,-547.608 216.328,-558.979"/>
<polygon fill="black" stroke="black" points="212.912,-558.195 213.527,-568.772 219.642,-560.12 212.912,-558.195"/>
<text text-anchor="start" x="315" y="-491.4" font-family="Times Roman,serif" font-size="14.00">OnLostHeartbeat/</text>
</g>
<!-- VehicleFSM::DownloadedParameters -->
<g id="node6" class="node"><title>VehicleFSM::DownloadedParameters</title>
<polyline fill="none" stroke="black" points="285,-293 443,-293 "/>
<path fill="none" stroke="black" d="M443,-293C449,-293 455,-299 455,-305"/>
<polyline fill="none" stroke="black" points="455,-305 455,-317 "/>
<path fill="none" stroke="black" d="M455,-317C455,-323 449,-329 443,-329"/>
<polyline fill="none" stroke="black" points="443,-329 285,-329 "/>
<path fill="none" stroke="black" d="M285,-329C279,-329 273,-323 273,-317"/>
<polyline fill="none" stroke="black" points="273,-317 273,-305 "/>
<path fill="none" stroke="black" d="M273,-305C273,-299 279,-293 285,-293"/>
<text text-anchor="middle" x="364" y="-307.4" font-family="Times Roman,serif" font-size="14.00">DownloadedParameters</text>
</g>
<!-- VehicleFSM::DownloadingParameters&#45;&gt;VehicleFSM::DownloadedParameters -->
<g id="edge19" class="edge"><title>VehicleFSM::DownloadingParameters&#45;&gt;VehicleFSM::DownloadedParameters</title>
<path fill="none" stroke="black" d="M427.985,-386.559C385.194,-378.546 343.125,-369.828 340,-366 333.241,-357.72 335.754,-347.243 341.193,-337.66"/>
<polygon fill="black" stroke="black" points="344.198,-339.462 346.828,-329.199 338.372,-335.582 344.198,-339.462"/>
<text text-anchor="start" x="340" y="-353.4" font-family="Times Roman,serif" font-size="14.00">OnParametersDownloaded/</text>
</g>
<!-- VehicleFSM::DownloadedParameters&#45;&gt;VehicleFSM::WantInterface -->
<g id="edge33" class="edge"><title>VehicleFSM::DownloadedParameters&#45;&gt;VehicleFSM::WantInterface</title>
<path fill="none" stroke="black" d="M272.802,-325.414C222.612,-333.789 169.7,-343.544 166,-348 160.889,-354.155 160.655,-360.048 166,-366 190.939,-393.772 308.061,-356.228 333,-384 344.284,-396.566 343.693,-408.928 333,-422 307.448,-453.237 282.867,-429.136 244,-440 221.253,-446.358 216.522,-450.887 194,-458 165.007,-467.157 146.455,-451.837 128,-476 82.5848,-535.46 108.749,-583.988 156,-642 160.077,-647.006 165.009,-651.406 170.359,-655.258"/>
<polygon fill="black" stroke="black" points="168.745,-658.382 179.045,-660.866 172.542,-652.502 168.745,-658.382"/>
<text text-anchor="start" x="128" y="-491.4" font-family="Times Roman,serif" font-size="14.00">OnLostInterface/</text>
</g>
<!-- VehicleFSM::DownloadedParameters&#45;&gt;VehicleFSM::WantVehicle -->
<g id="edge31" class="edge"><title>VehicleFSM::DownloadedParameters&#45;&gt;VehicleFSM::WantVehicle</title>
<path fill="none" stroke="black" d="M342.586,-329.004C332.025,-340.081 323.243,-354.34 332,-366 349.23,-388.944 376.77,-361.056 394,-384 404.142,-397.505 405.051,-409.229 394,-422 357.56,-464.111 310.709,-401.999 270,-440 245.403,-462.961 274.154,-487.055 254,-514 243.994,-527.378 231.019,-518.631 221,-532 215.251,-539.671 212.146,-549.538 210.503,-558.792"/>
<polygon fill="black" stroke="black" points="207.016,-558.464 209.205,-568.83 213.958,-559.361 207.016,-558.464"/>
<text text-anchor="start" x="270" y="-445.4" font-family="Times Roman,serif" font-size="14.00">OnLostHeartbeat/</text>
</g>
<!-- VehicleFSM::Disarmed -->
<g id="node7" class="node"><title>VehicleFSM::Disarmed</title>
<polyline fill="none" stroke="black" points="245,-109 329,-109 "/>
<path fill="none" stroke="black" d="M329,-109C335,-109 341,-115 341,-121"/>
<polyline fill="none" stroke="black" points="341,-121 341,-133 "/>
<path fill="none" stroke="black" d="M341,-133C341,-139 335,-145 329,-145"/>
<polyline fill="none" stroke="black" points="329,-145 245,-145 "/>
<path fill="none" stroke="black" d="M245,-145C239,-145 233,-139 233,-133"/>
<polyline fill="none" stroke="black" points="233,-133 233,-121 "/>
<path fill="none" stroke="black" d="M233,-121C233,-115 239,-109 245,-109"/>
<text text-anchor="middle" x="287" y="-123.4" font-family="Times Roman,serif" font-size="14.00">Disarmed</text>
</g>
<!-- VehicleFSM::DownloadedParameters&#45;&gt;VehicleFSM::Disarmed -->
<g id="edge27" class="edge"><title>VehicleFSM::DownloadedParameters&#45;&gt;VehicleFSM::Disarmed</title>
<path fill="none" stroke="black" d="M375.795,-292.871C381.679,-281.334 386.01,-266.619 378,-256 360.464,-232.752 335.268,-258.91 315,-238 293.793,-216.121 287.945,-180.637 286.665,-155.691"/>
<polygon fill="black" stroke="black" points="290.154,-155.279 286.362,-145.386 283.157,-155.485 290.154,-155.279"/>
<text text-anchor="start" x="315" y="-215.4" font-family="Times Roman,serif" font-size="14.00">HBSaysDisarmed/</text>
</g>
<!-- VehicleFSM::Armed -->
<g id="node8" class="node"><title>VehicleFSM::Armed</title>
<polyline fill="none" stroke="black" points="195,-17 279,-17 "/>
<path fill="none" stroke="black" d="M279,-17C285,-17 291,-23 291,-29"/>
<polyline fill="none" stroke="black" points="291,-29 291,-41 "/>
<path fill="none" stroke="black" d="M291,-41C291,-47 285,-53 279,-53"/>
<polyline fill="none" stroke="black" points="279,-53 195,-53 "/>
<path fill="none" stroke="black" d="M195,-53C189,-53 183,-47 183,-41"/>
<polyline fill="none" stroke="black" points="183,-41 183,-29 "/>
<path fill="none" stroke="black" d="M183,-29C183,-23 189,-17 195,-17"/>
<text text-anchor="middle" x="237" y="-31.4" font-family="Times Roman,serif" font-size="14.00">Armed</text>
</g>
<!-- VehicleFSM::DownloadedParameters&#45;&gt;VehicleFSM::Armed -->
<g id="edge25" class="edge"><title>VehicleFSM::DownloadedParameters&#45;&gt;VehicleFSM::Armed</title>
<path fill="none" stroke="black" d="M391.294,-292.843C408.238,-279.83 428.531,-260.643 438,-238 459.521,-186.54 420.145,-90.8694 400,-72 385.613,-58.5244 340.589,-48.931 301.497,-42.8946"/>
<polygon fill="black" stroke="black" points="301.592,-39.3702 291.186,-41.3613 300.562,-46.2941 301.592,-39.3702"/>
<text text-anchor="start" x="443" y="-169.4" font-family="Times Roman,serif" font-size="14.00">HBSaysArmed/</text>
</g>
<!-- VehicleFSM::Flying -->
<g id="node9" class="node"><title>VehicleFSM::Flying</title>
<polyline fill="none" stroke="black" points="110,-201 194,-201 "/>
<path fill="none" stroke="black" d="M194,-201C200,-201 206,-207 206,-213"/>
<polyline fill="none" stroke="black" points="206,-213 206,-225 "/>
<path fill="none" stroke="black" d="M206,-225C206,-231 200,-237 194,-237"/>
<polyline fill="none" stroke="black" points="194,-237 110,-237 "/>
<path fill="none" stroke="black" d="M110,-237C104,-237 98,-231 98,-225"/>
<polyline fill="none" stroke="black" points="98,-225 98,-213 "/>
<path fill="none" stroke="black" d="M98,-213C98,-207 104,-201 110,-201"/>
<text text-anchor="middle" x="152" y="-215.4" font-family="Times Roman,serif" font-size="14.00">Flying</text>
</g>
<!-- VehicleFSM::DownloadedParameters&#45;&gt;VehicleFSM::Flying -->
<g id="edge29" class="edge"><title>VehicleFSM::DownloadedParameters&#45;&gt;VehicleFSM::Flying</title>
<path fill="none" stroke="black" d="M322.018,-292.847C308.291,-286.879 292.981,-280.189 279,-274 261.173,-266.109 256.86,-263.815 239,-256 227.84,-251.116 215.838,-245.955 204.421,-241.086"/>
<polygon fill="black" stroke="black" points="205.572,-237.772 195,-237.079 202.832,-244.214 205.572,-237.772"/>
<text text-anchor="start" x="279" y="-261.4" font-family="Times Roman,serif" font-size="14.00">HBSaysFlying/</text>
</g>
<!-- VehicleFSM::Disarmed&#45;&gt;VehicleFSM::WantInterface -->
<g id="edge39" class="edge"><title>VehicleFSM::Disarmed&#45;&gt;VehicleFSM::WantInterface</title>
<path fill="none" stroke="black" d="M232.743,-144.753C231.148,-145.185 229.564,-145.602 228,-146 163.775,-162.358 126.16,-145.122 89,-200 41.1439,-270.675 47.0934,-299.657 34,-384 18.7832,-482.021 -0.778919,-525.37 57,-606 80.889,-639.337 123.186,-657.565 159.735,-667.469"/>
<polygon fill="black" stroke="black" points="159.317,-670.974 169.871,-670.048 161.043,-664.19 159.317,-670.974"/>
<text text-anchor="start" x="34" y="-399.4" font-family="Times Roman,serif" font-size="14.00">OnLostInterface/</text>
</g>
<!-- VehicleFSM::Disarmed&#45;&gt;VehicleFSM::WantVehicle -->
<g id="edge37" class="edge"><title>VehicleFSM::Disarmed&#45;&gt;VehicleFSM::WantVehicle</title>
<path fill="none" stroke="black" d="M283.36,-145.312C274.341,-189.373 250.086,-299.887 228,-330 219.47,-341.63 207.805,-335.284 201,-348 172.307,-401.614 293.012,-338.188 333,-384 344.106,-396.723 343.495,-408.768 333,-422 311.16,-449.535 279.981,-414.308 256,-440 233.265,-464.357 262.691,-486.418 244,-514 235.277,-526.872 222.266,-518.83 214,-532 209.091,-539.821 207.168,-549.542 206.679,-558.627"/>
<polygon fill="black" stroke="black" points="203.179,-558.844 206.671,-568.846 210.179,-558.849 203.179,-558.844"/>
<text text-anchor="start" x="201" y="-353.4" font-family="Times Roman,serif" font-size="14.00">OnLostHeartbeat/</text>
</g>
<!-- VehicleFSM::Disarmed&#45;&gt;VehicleFSM::Armed -->
<g id="edge35" class="edge"><title>VehicleFSM::Disarmed&#45;&gt;VehicleFSM::Armed</title>
<path fill="none" stroke="black" d="M291.467,-108.947C293.275,-97.7185 293.77,-83.3154 288,-72 285.758,-67.6026 282.721,-63.6059 279.24,-60.0051"/>
<polygon fill="black" stroke="black" points="281.373,-57.2178 271.583,-53.1688 276.711,-62.4396 281.373,-57.2178"/>
<text text-anchor="start" x="293" y="-77.4" font-family="Times Roman,serif" font-size="14.00">HBSaysArmed/</text>
</g>
<!-- VehicleFSM::Armed&#45;&gt;VehicleFSM::WantInterface -->
<g id="edge47" class="edge"><title>VehicleFSM::Armed&#45;&gt;VehicleFSM::WantInterface</title>
<path fill="none" stroke="black" d="M291.15,-39.616C381.214,-48.8031 552,-73.3037 552,-127 552,-311 552,-311 552,-311 552,-356.259 596.531,-347.288 623,-384 667.322,-445.475 697.067,-482.815 662,-550 628.911,-613.394 596.792,-616.455 530,-642 488.71,-657.792 372.314,-668.75 296.674,-674.445"/>
<polygon fill="black" stroke="black" points="295.998,-670.986 286.283,-675.214 296.514,-677.966 295.998,-670.986"/>
<text text-anchor="start" x="604" y="-353.4" font-family="Times Roman,serif" font-size="14.00">OnLostInterface/</text>
</g>
<!-- VehicleFSM::Armed&#45;&gt;VehicleFSM::WantVehicle -->
<g id="edge45" class="edge"><title>VehicleFSM::Armed&#45;&gt;VehicleFSM::WantVehicle</title>
<path fill="none" stroke="black" d="M182.744,-44.577C164.753,-50.0532 145.815,-58.6215 132,-72 88.8887,-113.749 98.1272,-140.685 89,-200 80.2117,-257.112 64.5978,-278.6 91,-330 109.276,-365.581 142.62,-349.581 163,-384 182.754,-417.363 181.04,-445.753 171,-458 145.138,-489.546 106.862,-444.454 81,-476 70.2926,-489.061 76.5923,-497.696 81,-514 85.8342,-531.881 87.6884,-538.24 102,-550 114.395,-560.185 129.764,-567.637 144.949,-573.063"/>
<polygon fill="black" stroke="black" points="144.275,-576.526 154.869,-576.344 146.474,-569.88 144.275,-576.526"/>
<text text-anchor="start" x="91" y="-307.4" font-family="Times Roman,serif" font-size="14.00">OnLostHeartbeat/</text>
</g>
<!-- VehicleFSM::Armed&#45;&gt;VehicleFSM::Disarmed -->
<g id="edge41" class="edge"><title>VehicleFSM::Armed&#45;&gt;VehicleFSM::Disarmed</title>
<path fill="none" stroke="black" d="M183.016,-53.029C163.972,-62.3839 149.776,-75.0056 161,-90 162.071,-91.4307 192.338,-100.341 222.936,-109.059"/>
<polygon fill="black" stroke="black" points="222.269,-112.508 232.845,-111.872 224.181,-105.774 222.269,-112.508"/>
<text text-anchor="start" x="161" y="-77.4" font-family="Times Roman,serif" font-size="14.00">HBSaysDisarmed/</text>
</g>
<!-- VehicleFSM::Armed&#45;&gt;VehicleFSM::Flying -->
<g id="edge43" class="edge"><title>VehicleFSM::Armed&#45;&gt;VehicleFSM::Flying</title>
<path fill="none" stroke="black" d="M182.996,-52.9639C159.033,-64.3472 134.186,-81.9525 125,-108 115.13,-135.985 126.021,-169.176 136.776,-191.927"/>
<polygon fill="black" stroke="black" points="133.709,-193.619 141.316,-200.993 139.968,-190.484 133.709,-193.619"/>
<text text-anchor="start" x="125" y="-123.4" font-family="Times Roman,serif" font-size="14.00">HBSaysFlying/</text>
</g>
<!-- VehicleFSM::Flying&#45;&gt;VehicleFSM::WantInterface -->
<g id="edge53" class="edge"><title>VehicleFSM::Flying&#45;&gt;VehicleFSM::WantInterface</title>
<path fill="none" stroke="black" d="M120.214,-237.257C101.509,-249.949 79.5168,-268.745 69,-292 62.0409,-307.388 61.6839,-314.778 69,-330 80.095,-353.085 92.1486,-352.639 114,-366 130.632,-376.17 143.415,-367.629 154,-384 163.17,-398.182 164.822,-409.034 154,-422 125.345,-456.335 85.0573,-406.886 55,-440 22.1295,-476.214 33.9168,-504.559 52,-550 72.8079,-602.288 92.6698,-610.054 139,-642 147.059,-647.557 156.082,-652.506 165.208,-656.835"/>
<polygon fill="black" stroke="black" points="163.782,-660.032 174.337,-660.958 166.663,-653.652 163.782,-660.032"/>
<text text-anchor="start" x="55" y="-445.4" font-family="Times Roman,serif" font-size="14.00">OnLostInterface/</text>
</g>
<!-- VehicleFSM::Flying&#45;&gt;VehicleFSM::WantVehicle -->
<g id="edge51" class="edge"><title>VehicleFSM::Flying&#45;&gt;VehicleFSM::WantVehicle</title>
<path fill="none" stroke="black" d="M176.853,-237.372C204.364,-259.967 241.976,-299.119 219,-330 202.381,-352.336 175.619,-325.664 159,-348 154.225,-354.418 154.833,-359.171 159,-366 168.111,-380.932 184.889,-369.068 194,-384 211.394,-412.505 206.282,-436.185 181,-458 150.445,-484.364 117.552,-444.763 92,-476 81.3067,-489.072 83.8071,-499.231 92,-514 104.454,-536.449 127.001,-552.9 149.002,-564.438"/>
<polygon fill="black" stroke="black" points="147.524,-567.612 158.037,-568.93 150.641,-561.344 147.524,-567.612"/>
<text text-anchor="start" x="205" y="-399.4" font-family="Times Roman,serif" font-size="14.00">OnLostHeartbeat/</text>
</g>
<!-- VehicleFSM::Flying&#45;&gt;VehicleFSM::Disarmed -->
<g id="edge49" class="edge"><title>VehicleFSM::Flying&#45;&gt;VehicleFSM::Disarmed</title>
<path fill="none" stroke="black" d="M141.58,-200.906C136.375,-189.239 132.755,-174.364 141,-164 163.149,-136.158 184.525,-154.789 219,-146 220.269,-145.676 221.551,-145.347 222.843,-145.012"/>
<polygon fill="black" stroke="black" points="224.094,-148.302 232.869,-142.365 222.307,-141.533 224.094,-148.302"/>
<text text-anchor="start" x="141" y="-169.4" font-family="Times Roman,serif" font-size="14.00">HBSaysDisarmed/</text>
</g>
<!-- %start -->
<g id="node10" class="node"><title>%start</title>
<ellipse fill="black" stroke="black" cx="228" cy="-745" rx="9" ry="9"/>
</g>
<!-- %start&#45;&gt;VehicleFSM::WantInterface -->
<g id="edge55" class="edge"><title>%start&#45;&gt;VehicleFSM::WantInterface</title>
<path fill="none" stroke="black" d="M228,-735.823C228,-728.41 228,-717.562 228,-707.326"/>
<polygon fill="black" stroke="black" points="231.5,-707.051 228,-697.051 224.5,-707.051 231.5,-707.051"/>
</g>
</g>
</svg>
