<?xml version="1.0" encoding="UTF-8" standalone="no"?>
<!DOCTYPE svg PUBLIC "-//W3C//DTD SVG 1.1//EN"
 "http://www.w3.org/Graphics/SVG/1.1/DTD/svg11.dtd">
<!-- Generated by graphviz version 2.26.3 (20100126.1600)
 -->
<!-- Title: VehicleFSM Pages: 1 -->
<svg width="784pt" height="934pt"
 viewBox="0.00 0.00 784.43 934.00" xmlns="http://www.w3.org/2000/svg" xmlns:xlink="http://www.w3.org/1999/xlink">
<g id="graph1" class="graph" transform="scale(1 1) rotate(0) translate(4 930)">
<title>VehicleFSM</title>
<polygon fill="white" stroke="white" points="-4,5 -4,-930 781.427,-930 781.427,5 -4,5"/>
<g id="graph2" class="cluster"><title>cluster_VehicleFSM</title>
<polygon fill="none" stroke="black" points="46.4272,-8 46.4272,-918 714.427,-918 714.427,-8 46.4272,-8"/>
<text text-anchor="middle" x="380.427" y="-901.4" font-family="Times Roman,serif" font-size="14.00">VehicleFSM</text>
</g>
<!-- VehicleFSM::WantInterface -->
<g id="node2" class="node"><title>VehicleFSM::WantInterface</title>
<polyline fill="none" stroke="black" points="197.427,-757 373.427,-757 "/>
<path fill="none" stroke="black" d="M373.427,-757C379.427,-757 385.427,-763 385.427,-769"/>
<polyline fill="none" stroke="black" points="385.427,-769 385.427,-815 "/>
<path fill="none" stroke="black" d="M385.427,-815C385.427,-821 379.427,-827 373.427,-827"/>
<polyline fill="none" stroke="black" points="373.427,-827 197.427,-827 "/>
<path fill="none" stroke="black" d="M197.427,-827C191.427,-827 185.427,-821 185.427,-815"/>
<polyline fill="none" stroke="black" points="185.427,-815 185.427,-769 "/>
<path fill="none" stroke="black" d="M185.427,-769C185.427,-763 191.427,-757 197.427,-757"/>
<text text-anchor="middle" x="285.427" y="-810.4" font-family="Times Roman,serif" font-size="14.00">WantInterface</text>
<polyline fill="none" stroke="black" points="185.427,-801 385.427,-801 "/>
<text text-anchor="start" x="193.427" y="-784.4" font-family="Times Roman,serif" font-size="14.00">OnLostHeartbeat/</text>
<text text-anchor="start" x="193.427" y="-766.4" font-family="Times Roman,serif" font-size="14.00">OnWaypointsDownloaded/</text>
</g>
<!-- VehicleFSM::WantInterface&#45;&gt;VehicleFSM::WantInterface -->
<g id="edge5" class="edge"><title>VehicleFSM::WantInterface&#45;&gt;VehicleFSM::WantInterface</title>
<path fill="none" stroke="black" d="M385.715,-800.454C396.494,-798.826 403.427,-796.008 403.427,-792 403.427,-789.432 400.582,-787.353 395.703,-785.762"/>
<polygon fill="black" stroke="black" points="396.236,-782.296 385.715,-783.546 394.719,-789.129 396.236,-782.296"/>
<text text-anchor="start" x="403.427" y="-788.4" font-family="Times Roman,serif" font-size="14.00">OnLostInterface/</text>
</g>
<!-- VehicleFSM::WantVehicle -->
<g id="node3" class="node"><title>VehicleFSM::WantVehicle</title>
<polyline fill="none" stroke="black" points="178.427,-649 354.427,-649 "/>
<path fill="none" stroke="black" d="M354.427,-649C360.427,-649 366.427,-655 366.427,-661"/>
<polyline fill="none" stroke="black" points="366.427,-661 366.427,-689 "/>
<path fill="none" stroke="black" d="M366.427,-689C366.427,-695 360.427,-701 354.427,-701"/>
<polyline fill="none" stroke="black" points="354.427,-701 178.427,-701 "/>
<path fill="none" stroke="black" d="M178.427,-701C172.427,-701 166.427,-695 166.427,-689"/>
<polyline fill="none" stroke="black" points="166.427,-689 166.427,-661 "/>
<path fill="none" stroke="black" d="M166.427,-661C166.427,-655 172.427,-649 178.427,-649"/>
<text text-anchor="middle" x="266.427" y="-684.4" font-family="Times Roman,serif" font-size="14.00">WantVehicle</text>
<polyline fill="none" stroke="black" points="166.427,-675 366.427,-675 "/>
<text text-anchor="start" x="174.427" y="-658.4" font-family="Times Roman,serif" font-size="14.00">OnWaypointsDownloaded/</text>
</g>
<!-- VehicleFSM::WantInterface&#45;&gt;VehicleFSM::WantVehicle -->
<g id="edge3" class="edge"><title>VehicleFSM::WantInterface&#45;&gt;VehicleFSM::WantVehicle</title>
<path fill="none" stroke="black" d="M232.462,-756.702C227.225,-751.071 222.661,-744.823 219.427,-738 214.685,-727.992 217.673,-717.998 223.966,-709.015"/>
<polygon fill="black" stroke="black" points="226.859,-711.01 230.548,-701.078 221.471,-706.541 226.859,-711.01"/>
<text text-anchor="start" x="219.427" y="-725.4" font-family="Times Roman,serif" font-size="14.00">OnHasInterface/</text>
</g>
<!-- VehicleFSM::WantVehicle&#45;&gt;VehicleFSM::WantInterface -->
<g id="edge11" class="edge"><title>VehicleFSM::WantVehicle&#45;&gt;VehicleFSM::WantInterface</title>
<path fill="none" stroke="black" d="M315.984,-701.188C322.19,-706.57 327.669,-712.827 331.427,-720 336.331,-729.36 334.944,-739.085 330.388,-748.248"/>
<polygon fill="black" stroke="black" points="327.372,-746.472 325.15,-756.831 333.347,-750.118 327.372,-746.472"/>
<text text-anchor="start" x="335.427" y="-725.4" font-family="Times Roman,serif" font-size="14.00">OnLostInterface/</text>
</g>
<!-- VehicleFSM::WantVehicle&#45;&gt;VehicleFSM::WantVehicle -->
<g id="edge9" class="edge"><title>VehicleFSM::WantVehicle&#45;&gt;VehicleFSM::WantVehicle</title>
<path fill="none" stroke="black" d="M366.715,-683.454C377.494,-681.826 384.427,-679.008 384.427,-675 384.427,-672.432 381.582,-670.353 376.703,-668.762"/>
<polygon fill="black" stroke="black" points="377.236,-665.296 366.715,-666.546 375.719,-672.129 377.236,-665.296"/>
<text text-anchor="start" x="384.427" y="-671.4" font-family="Times Roman,serif" font-size="14.00">OnLostHeartbeat/</text>
</g>
<!-- VehicleFSM::DownloadingWaypoints -->
<g id="node4" class="node"><title>VehicleFSM::DownloadingWaypoints</title>
<polyline fill="none" stroke="black" points="498.427,-557 654.427,-557 "/>
<path fill="none" stroke="black" d="M654.427,-557C660.427,-557 666.427,-563 666.427,-569"/>
<polyline fill="none" stroke="black" points="666.427,-569 666.427,-581 "/>
<path fill="none" stroke="black" d="M666.427,-581C666.427,-587 660.427,-593 654.427,-593"/>
<polyline fill="none" stroke="black" points="654.427,-593 498.427,-593 "/>
<path fill="none" stroke="black" d="M498.427,-593C492.427,-593 486.427,-587 486.427,-581"/>
<polyline fill="none" stroke="black" points="486.427,-581 486.427,-569 "/>
<path fill="none" stroke="black" d="M486.427,-569C486.427,-563 492.427,-557 498.427,-557"/>
<text text-anchor="middle" x="576.427" y="-571.4" font-family="Times Roman,serif" font-size="14.00">DownloadingWaypoints</text>
</g>
<!-- VehicleFSM::WantVehicle&#45;&gt;VehicleFSM::DownloadingWaypoints -->
<g id="edge7" class="edge"><title>VehicleFSM::WantVehicle&#45;&gt;VehicleFSM::DownloadingWaypoints</title>
<path fill="none" stroke="black" d="M268.125,-648.841C270.406,-635.765 275.451,-620.875 286.427,-612 318.719,-585.891 431.299,-599.737 472.427,-594 473.705,-593.822 474.992,-593.639 476.285,-593.452"/>
<polygon fill="black" stroke="black" points="476.942,-596.893 486.31,-591.943 475.9,-589.97 476.942,-596.893"/>
<text text-anchor="start" x="286.427" y="-617.4" font-family="Times Roman,serif" font-size="14.00">OnHasHeartbeat/</text>
</g>
<!-- VehicleFSM::DownloadingWaypoints&#45;&gt;VehicleFSM::WantInterface -->
<g id="edge17" class="edge"><title>VehicleFSM::DownloadingWaypoints&#45;&gt;VehicleFSM::WantInterface</title>
<path fill="none" stroke="black" d="M569.67,-593.121C557.868,-624.058 533.25,-685.343 517.427,-702 485.063,-736.071 438.317,-757.437 395.254,-770.744"/>
<polygon fill="black" stroke="black" points="394.142,-767.423 385.554,-773.627 396.137,-774.133 394.142,-767.423"/>
<text text-anchor="start" x="547.427" y="-671.4" font-family="Times Roman,serif" font-size="14.00">OnLostInterface/</text>
</g>
<!-- VehicleFSM::DownloadingWaypoints&#45;&gt;VehicleFSM::WantVehicle -->
<g id="edge15" class="edge"><title>VehicleFSM::DownloadingWaypoints&#45;&gt;VehicleFSM::WantVehicle</title>
<path fill="none" stroke="black" d="M486.313,-591.589C467.327,-596.79 447.799,-603.477 430.427,-612 418.774,-617.718 418.902,-623.931 407.427,-630 396.673,-635.688 385.075,-640.811 373.311,-645.383"/>
<polygon fill="black" stroke="black" points="371.987,-642.142 363.855,-648.933 374.447,-648.695 371.987,-642.142"/>
<text text-anchor="start" x="430.427" y="-617.4" font-family="Times Roman,serif" font-size="14.00">OnLostHeartbeat/</text>
</g>
<!-- VehicleFSM::DownloadingParameters -->
<g id="node5" class="node"><title>VehicleFSM::DownloadingParameters</title>
<polyline fill="none" stroke="black" points="478.427,-449 654.427,-449 "/>
<path fill="none" stroke="black" d="M654.427,-449C660.427,-449 666.427,-455 666.427,-461"/>
<polyline fill="none" stroke="black" points="666.427,-461 666.427,-489 "/>
<path fill="none" stroke="black" d="M666.427,-489C666.427,-495 660.427,-501 654.427,-501"/>
<polyline fill="none" stroke="black" points="654.427,-501 478.427,-501 "/>
<path fill="none" stroke="black" d="M478.427,-501C472.427,-501 466.427,-495 466.427,-489"/>
<polyline fill="none" stroke="black" points="466.427,-489 466.427,-461 "/>
<path fill="none" stroke="black" d="M466.427,-461C466.427,-455 472.427,-449 478.427,-449"/>
<text text-anchor="middle" x="566.427" y="-484.4" font-family="Times Roman,serif" font-size="14.00">DownloadingParameters</text>
<polyline fill="none" stroke="black" points="466.427,-475 666.427,-475 "/>
<text text-anchor="start" x="474.427" y="-458.4" font-family="Times Roman,serif" font-size="14.00">OnWaypointsDownloaded/</text>
</g>
<!-- VehicleFSM::DownloadingWaypoints&#45;&gt;VehicleFSM::DownloadingParameters -->
<g id="edge13" class="edge"><title>VehicleFSM::DownloadingWaypoints&#45;&gt;VehicleFSM::DownloadingParameters</title>
<path fill="none" stroke="black" d="M516.641,-556.991C508.629,-552.082 501.455,-545.865 496.427,-538 489.339,-526.913 493.627,-516.57 502.839,-507.599"/>
<polygon fill="black" stroke="black" points="505.295,-510.109 510.735,-501.017 500.813,-504.732 505.295,-510.109"/>
<text text-anchor="start" x="496.427" y="-525.4" font-family="Times Roman,serif" font-size="14.00">OnWaypointsDownloaded/</text>
</g>
<!-- VehicleFSM::DownloadingParameters&#45;&gt;VehicleFSM::WantInterface -->
<g id="edge23" class="edge"><title>VehicleFSM::DownloadingParameters&#45;&gt;VehicleFSM::WantInterface</title>
<path fill="none" stroke="black" d="M650.643,-501.024C664.605,-506.985 675.999,-513.491 680.427,-520 698.97,-547.254 697.466,-569.486 675.427,-594 647.863,-624.659 610.599,-580.144 584.427,-612 579.349,-618.181 579.405,-623.772 584.427,-630 608.121,-659.383 643.733,-618.617 667.427,-648 682.492,-666.683 682.325,-683.184 667.427,-702 633.999,-744.219 496.209,-768.615 395.683,-781.1"/>
<polygon fill="black" stroke="black" points="394.966,-777.662 385.463,-782.345 395.813,-784.61 394.966,-777.662"/>
<text text-anchor="start" x="584.427" y="-617.4" font-family="Times Roman,serif" font-size="14.00">OnLostInterface/</text>
</g>
<!-- VehicleFSM::DownloadingParameters&#45;&gt;VehicleFSM::WantVehicle -->
<g id="edge21" class="edge"><title>VehicleFSM::DownloadingParameters&#45;&gt;VehicleFSM::WantVehicle</title>
<path fill="none" stroke="black" d="M519.428,-501.134C495.218,-513.722 464.876,-528.179 436.427,-538 400.747,-550.318 386.899,-538.553 353.427,-556 331.395,-567.484 333.261,-580.464 312.427,-594 295.397,-605.064 282.139,-595.408 270.427,-612 264.997,-619.693 262.761,-629.319 262.187,-638.714"/>
<polygon fill="black" stroke="black" points="258.687,-638.7 262.144,-648.715 265.687,-638.73 258.687,-638.7"/>
<text text-anchor="start" x="353.427" y="-571.4" font-family="Times Roman,serif" font-size="14.00">OnLostHeartbeat/</text>
</g>
<!-- VehicleFSM::DownloadedParameters -->
<g id="node6" class="node"><title>VehicleFSM::DownloadedParameters</title>
<polyline fill="none" stroke="black" points="306.427,-341 482.427,-341 "/>
<path fill="none" stroke="black" d="M482.427,-341C488.427,-341 494.427,-347 494.427,-353"/>
<polyline fill="none" stroke="black" points="494.427,-353 494.427,-381 "/>
<path fill="none" stroke="black" d="M494.427,-381C494.427,-387 488.427,-393 482.427,-393"/>
<polyline fill="none" stroke="black" points="482.427,-393 306.427,-393 "/>
<path fill="none" stroke="black" d="M306.427,-393C300.427,-393 294.427,-387 294.427,-381"/>
<polyline fill="none" stroke="black" points="294.427,-381 294.427,-353 "/>
<path fill="none" stroke="black" d="M294.427,-353C294.427,-347 300.427,-341 306.427,-341"/>
<text text-anchor="middle" x="394.427" y="-376.4" font-family="Times Roman,serif" font-size="14.00">DownloadedParameters</text>
<polyline fill="none" stroke="black" points="294.427,-367 494.427,-367 "/>
<text text-anchor="start" x="302.427" y="-350.4" font-family="Times Roman,serif" font-size="14.00">OnWaypointsDownloaded/</text>
</g>
<!-- VehicleFSM::DownloadingParameters&#45;&gt;VehicleFSM::DownloadedParameters -->
<g id="edge19" class="edge"><title>VehicleFSM::DownloadingParameters&#45;&gt;VehicleFSM::DownloadedParameters</title>
<path fill="none" stroke="black" d="M466.26,-451.191C421.507,-440.525 378.626,-430.252 378.427,-430 372.242,-422.159 372.245,-412.21 374.897,-402.548"/>
<polygon fill="black" stroke="black" points="378.215,-403.665 378.302,-393.07 371.627,-401.298 378.215,-403.665"/>
<text text-anchor="start" x="378.427" y="-417.4" font-family="Times Roman,serif" font-size="14.00">OnParametersDownloaded/</text>
</g>
<!-- VehicleFSM::DownloadedParameters&#45;&gt;VehicleFSM::WantInterface -->
<g id="edge33" class="edge"><title>VehicleFSM::DownloadedParameters&#45;&gt;VehicleFSM::WantInterface</title>
<path fill="none" stroke="black" d="M294.262,-385.183C251.83,-393.896 210.657,-404.123 204.427,-412 199.465,-418.275 199.09,-424.041 204.427,-430 228.741,-457.146 343.114,-420.854 367.427,-448 383.439,-465.878 382.538,-483.354 367.427,-502 343.114,-532.001 319.634,-509.664 282.427,-520 258.863,-526.546 253.765,-530.686 230.427,-538 202.231,-546.837 185.396,-533.345 166.427,-556 160.202,-563.435 145.416,-678.871 157.427,-702 167.687,-721.757 184.495,-738.087 202.607,-751.16"/>
<polygon fill="black" stroke="black" points="200.78,-754.152 211.002,-756.938 204.749,-748.386 200.78,-754.152"/>
<text text-anchor="start" x="166.427" y="-571.4" font-family="Times Roman,serif" font-size="14.00">OnLostInterface/</text>
</g>
<!-- VehicleFSM::DownloadedParameters&#45;&gt;VehicleFSM::WantVehicle -->
<g id="edge31" class="edge"><title>VehicleFSM::DownloadedParameters&#45;&gt;VehicleFSM::WantVehicle</title>
<path fill="none" stroke="black" d="M372.799,-393.139C365.57,-405.146 361.207,-419.103 369.427,-430 386.963,-453.248 414.891,-424.752 432.427,-448 446.88,-467.16 448.132,-483.851 432.427,-502 395.987,-544.111 349.136,-481.999 308.427,-520 283.83,-542.961 312.581,-567.055 292.427,-594 282.421,-607.378 267.955,-597.634 259.427,-612 254.642,-620.061 253.816,-629.734 254.845,-639.052"/>
<polygon fill="black" stroke="black" points="251.404,-639.693 256.59,-648.932 258.297,-638.476 251.404,-639.693"/>
<text text-anchor="start" x="308.427" y="-525.4" font-family="Times Roman,serif" font-size="14.00">OnLostHeartbeat/</text>
</g>
<!-- VehicleFSM::Disarmed -->
<g id="node7" class="node"><title>VehicleFSM::Disarmed</title>
<polyline fill="none" stroke="black" points="251.427,-125 427.427,-125 "/>
<path fill="none" stroke="black" d="M427.427,-125C433.427,-125 439.427,-131 439.427,-137"/>
<polyline fill="none" stroke="black" points="439.427,-137 439.427,-165 "/>
<path fill="none" stroke="black" d="M439.427,-165C439.427,-171 433.427,-177 427.427,-177"/>
<polyline fill="none" stroke="black" points="427.427,-177 251.427,-177 "/>
<path fill="none" stroke="black" d="M251.427,-177C245.427,-177 239.427,-171 239.427,-165"/>
<polyline fill="none" stroke="black" points="239.427,-165 239.427,-137 "/>
<path fill="none" stroke="black" d="M239.427,-137C239.427,-131 245.427,-125 251.427,-125"/>
<text text-anchor="middle" x="339.427" y="-160.4" font-family="Times Roman,serif" font-size="14.00">Disarmed</text>
<polyline fill="none" stroke="black" points="239.427,-151 439.427,-151 "/>
<text text-anchor="start" x="247.427" y="-134.4" font-family="Times Roman,serif" font-size="14.00">OnWaypointsDownloaded/</text>
</g>
<!-- VehicleFSM::DownloadedParameters&#45;&gt;VehicleFSM::Disarmed -->
<g id="edge27" class="edge"><title>VehicleFSM::DownloadedParameters&#45;&gt;VehicleFSM::Disarmed</title>
<path fill="none" stroke="black" d="M403.226,-340.831C405.652,-328.818 406.057,-314.864 399.427,-304 390.316,-289.068 374.866,-300.036 364.427,-286 343.271,-257.552 338.259,-216.591 337.774,-187.259"/>
<polygon fill="black" stroke="black" points="341.274,-187.025 337.778,-177.023 334.274,-187.022 341.274,-187.025"/>
<text text-anchor="start" x="364.427" y="-255.4" font-family="Times Roman,serif" font-size="14.00">HBSaysDisarmed/</text>
</g>
<!-- VehicleFSM::Armed -->
<g id="node8" class="node"><title>VehicleFSM::Armed</title>
<polyline fill="none" stroke="black" points="194.427,-17 370.427,-17 "/>
<path fill="none" stroke="black" d="M370.427,-17C376.427,-17 382.427,-23 382.427,-29"/>
<polyline fill="none" stroke="black" points="382.427,-29 382.427,-57 "/>
<path fill="none" stroke="black" d="M382.427,-57C382.427,-63 376.427,-69 370.427,-69"/>
<polyline fill="none" stroke="black" points="370.427,-69 194.427,-69 "/>
<path fill="none" stroke="black" d="M194.427,-69C188.427,-69 182.427,-63 182.427,-57"/>
<polyline fill="none" stroke="black" points="182.427,-57 182.427,-29 "/>
<path fill="none" stroke="black" d="M182.427,-29C182.427,-23 188.427,-17 194.427,-17"/>
<text text-anchor="middle" x="282.427" y="-52.4" font-family="Times Roman,serif" font-size="14.00">Armed</text>
<polyline fill="none" stroke="black" points="182.427,-43 382.427,-43 "/>
<text text-anchor="start" x="190.427" y="-26.4" font-family="Times Roman,serif" font-size="14.00">OnWaypointsDownloaded/</text>
</g>
<!-- VehicleFSM::DownloadedParameters&#45;&gt;VehicleFSM::Armed -->
<g id="edge25" class="edge"><title>VehicleFSM::DownloadedParameters&#45;&gt;VehicleFSM::Armed</title>
<path fill="none" stroke="black" d="M438.704,-340.747C457.424,-327.033 477.227,-308.411 487.427,-286 497.369,-264.156 490.745,-255.77 487.427,-232 487.283,-230.97 447.166,-88.7317 446.427,-88 437.538,-79.1958 416.561,-71.2891 392.473,-64.6506"/>
<polygon fill="black" stroke="black" points="393.3,-61.2489 382.737,-62.0748 391.509,-68.0161 393.3,-61.2489"/>
<text text-anchor="start" x="482.427" y="-201.4" font-family="Times Roman,serif" font-size="14.00">HBSaysArmed/</text>
</g>
<!-- VehicleFSM::Flying -->
<g id="node9" class="node"><title>VehicleFSM::Flying</title>
<polyline fill="none" stroke="black" points="106.427,-233 282.427,-233 "/>
<path fill="none" stroke="black" d="M282.427,-233C288.427,-233 294.427,-239 294.427,-245"/>
<polyline fill="none" stroke="black" points="294.427,-245 294.427,-273 "/>
<path fill="none" stroke="black" d="M294.427,-273C294.427,-279 288.427,-285 282.427,-285"/>
<polyline fill="none" stroke="black" points="282.427,-285 106.427,-285 "/>
<path fill="none" stroke="black" d="M106.427,-285C100.427,-285 94.4272,-279 94.4272,-273"/>
<polyline fill="none" stroke="black" points="94.4272,-273 94.4272,-245 "/>
<path fill="none" stroke="black" d="M94.4272,-245C94.4272,-239 100.427,-233 106.427,-233"/>
<text text-anchor="middle" x="194.427" y="-268.4" font-family="Times Roman,serif" font-size="14.00">Flying</text>
<polyline fill="none" stroke="black" points="94.4272,-259 294.427,-259 "/>
<text text-anchor="start" x="102.427" y="-242.4" font-family="Times Roman,serif" font-size="14.00">OnWaypointsDownloaded/</text>
</g>
<!-- VehicleFSM::DownloadedParameters&#45;&gt;VehicleFSM::Flying -->
<g id="edge29" class="edge"><title>VehicleFSM::DownloadedParameters&#45;&gt;VehicleFSM::Flying</title>
<path fill="none" stroke="black" d="M337.847,-340.926C325.414,-334.916 312.392,-328.403 300.427,-322 282.104,-312.194 262.434,-300.766 245.075,-290.356"/>
<polygon fill="black" stroke="black" points="246.597,-287.187 236.226,-285.019 242.982,-293.181 246.597,-287.187"/>
<text text-anchor="start" x="300.427" y="-309.4" font-family="Times Roman,serif" font-size="14.00">HBSaysFlying/</text>
</g>
<!-- VehicleFSM::Disarmed&#45;&gt;VehicleFSM::WantInterface -->
<g id="edge39" class="edge"><title>VehicleFSM::Disarmed&#45;&gt;VehicleFSM::WantInterface</title>
<path fill="none" stroke="black" d="M239.287,-176.884C172.464,-195.166 95.1167,-218.694 85.4272,-232 -37.5559,-400.886 -19.9265,-526.506 93.4272,-702 112.425,-731.412 143.809,-751.392 175.753,-764.889"/>
<polygon fill="black" stroke="black" points="174.634,-768.212 185.217,-768.7 177.248,-761.718 174.634,-768.212"/>
<text text-anchor="start" x="5.4272" y="-471.4" font-family="Times Roman,serif" font-size="14.00">OnLostInterface/</text>
</g>
<!-- VehicleFSM::Disarmed&#45;&gt;VehicleFSM::WantVehicle -->
<g id="edge37" class="edge"><title>VehicleFSM::Disarmed&#45;&gt;VehicleFSM::WantVehicle</title>
<path fill="none" stroke="black" d="M334.524,-177.093C327.795,-211.059 315.191,-268.188 303.427,-286 296.274,-296.831 287.961,-293.43 280.427,-304 255.872,-338.451 268.204,-356.089 249.427,-394 245.16,-402.616 240.213,-402.798 237.427,-412 220.054,-469.38 328.049,-402.794 367.427,-448 383.191,-466.097 382.228,-483.107 367.427,-502 346.82,-528.306 317.08,-495.434 294.427,-520 271.841,-544.494 301.118,-566.418 282.427,-594 273.704,-606.872 260.088,-598.469 252.427,-612 247.765,-620.234 247.703,-629.892 249.712,-639.138"/>
<polygon fill="black" stroke="black" points="246.41,-640.314 252.587,-648.922 253.126,-638.341 246.41,-640.314"/>
<text text-anchor="start" x="237.427" y="-417.4" font-family="Times Roman,serif" font-size="14.00">OnLostHeartbeat/</text>
</g>
<!-- VehicleFSM::Disarmed&#45;&gt;VehicleFSM::Armed -->
<g id="edge35" class="edge"><title>VehicleFSM::Disarmed&#45;&gt;VehicleFSM::Armed</title>
<path fill="none" stroke="black" d="M341.194,-124.963C340.959,-113.114 339.165,-99.2571 333.427,-88 331.381,-83.9858 328.812,-80.1686 325.921,-76.5787"/>
<polygon fill="black" stroke="black" points="328.459,-74.1669 319.157,-69.095 323.266,-78.8607 328.459,-74.1669"/>
<text text-anchor="start" x="339.427" y="-93.4" font-family="Times Roman,serif" font-size="14.00">HBSaysArmed/</text>
</g>
<!-- VehicleFSM::Armed&#45;&gt;VehicleFSM::WantInterface -->
<g id="edge47" class="edge"><title>VehicleFSM::Armed&#45;&gt;VehicleFSM::WantInterface</title>
<path fill="none" stroke="black" d="M382.852,-58.6029C472.732,-75.4906 590.427,-106.164 590.427,-151 590.427,-367 590.427,-367 590.427,-367 590.427,-419.184 650.374,-402.224 675.427,-448 729.627,-547.031 742.86,-610.004 677.427,-702 661.971,-723.731 653.993,-727.625 629.427,-738 588.287,-755.374 480.056,-770.68 395.876,-780.518"/>
<polygon fill="black" stroke="black" points="395.267,-777.065 385.735,-781.691 396.071,-784.019 395.267,-777.065"/>
<text text-anchor="start" x="660.427" y="-417.4" font-family="Times Roman,serif" font-size="14.00">OnLostInterface/</text>
</g>
<!-- VehicleFSM::Armed&#45;&gt;VehicleFSM::WantVehicle -->
<g id="edge45" class="edge"><title>VehicleFSM::Armed&#45;&gt;VehicleFSM::WantVehicle</title>
<path fill="none" stroke="black" d="M182.185,-64.7832C167.591,-70.7604 153.456,-78.3558 141.427,-88 70.0773,-145.207 74.2533,-195.233 85.4272,-286 91.4725,-335.107 82.8753,-354.318 112.427,-394 140.517,-431.719 178.478,-408.134 203.427,-448 223.067,-479.383 215.4,-530.715 209.427,-538 183.565,-569.546 145.289,-524.454 119.427,-556 108.72,-569.061 115.02,-577.696 119.427,-594 124.261,-611.881 126.175,-618.168 140.427,-630 146.85,-635.332 153.953,-640.054 161.418,-644.232"/>
<polygon fill="black" stroke="black" points="159.845,-647.359 170.328,-648.89 163.088,-641.155 159.845,-647.359"/>
<text text-anchor="start" x="112.427" y="-363.4" font-family="Times Roman,serif" font-size="14.00">OnLostHeartbeat/</text>
</g>
<!-- VehicleFSM::Armed&#45;&gt;VehicleFSM::Disarmed -->
<g id="edge41" class="edge"><title>VehicleFSM::Armed&#45;&gt;VehicleFSM::Disarmed</title>
<path fill="none" stroke="black" d="M221.029,-69.1575C205.849,-79.4148 196.438,-92.0741 206.427,-106 210.407,-111.548 219.015,-116.823 230.034,-121.679"/>
<polygon fill="black" stroke="black" points="228.765,-124.941 239.346,-125.48 231.41,-118.46 228.765,-124.941"/>
<text text-anchor="start" x="206.427" y="-93.4" font-family="Times Roman,serif" font-size="14.00">HBSaysDisarmed/</text>
</g>
<!-- VehicleFSM::Armed&#45;&gt;VehicleFSM::Flying -->
<g id="edge43" class="edge"><title>VehicleFSM::Armed&#45;&gt;VehicleFSM::Flying</title>
<path fill="none" stroke="black" d="M197.57,-69.0725C171.762,-81.4239 146.312,-99.1052 131.427,-124 111.652,-157.074 136.235,-197.378 160.241,-225.293"/>
<polygon fill="black" stroke="black" points="157.69,-227.691 166.96,-232.821 162.913,-223.03 157.69,-227.691"/>
<text text-anchor="start" x="131.427" y="-147.4" font-family="Times Roman,serif" font-size="14.00">HBSaysFlying/</text>
</g>
<!-- VehicleFSM::Flying&#45;&gt;VehicleFSM::WantInterface -->
<g id="edge53" class="edge"><title>VehicleFSM::Flying&#45;&gt;VehicleFSM::WantInterface</title>
<path fill="none" stroke="black" d="M143.684,-285.015C123.184,-298.424 101.731,-316.868 90.4272,-340 79.8899,-361.563 79.1943,-372.791 90.4272,-394 103.755,-419.164 118.096,-416.993 143.427,-430 164.066,-440.597 179.148,-428.975 192.427,-448 206.164,-467.68 207.805,-483.574 192.427,-502 163.772,-536.335 123.484,-486.886 93.4272,-520 60.5567,-556.214 75.6659,-583.374 90.4272,-630 108.142,-685.956 121.227,-700.558 166.427,-738 172.385,-742.935 178.868,-747.514 185.629,-751.744"/>
<polygon fill="black" stroke="black" points="183.94,-754.811 194.324,-756.915 187.518,-748.795 183.94,-754.811"/>
<text text-anchor="start" x="93.4272" y="-525.4" font-family="Times Roman,serif" font-size="14.00">OnLostInterface/</text>
</g>
<!-- VehicleFSM::Flying&#45;&gt;VehicleFSM::WantVehicle -->
<g id="edge51" class="edge"><title>VehicleFSM::Flying&#45;&gt;VehicleFSM::WantVehicle</title>
<path fill="none" stroke="black" d="M213.94,-285.208C223.999,-300.369 235.223,-320.299 240.427,-340 246.556,-363.204 253.724,-374.02 240.427,-394 228.949,-411.248 208.905,-394.752 197.427,-412 192.995,-418.66 193.26,-423.171 197.427,-430 206.539,-444.932 223.316,-433.068 232.427,-448 244.929,-468.487 236.565,-478.359 232.427,-502 229.494,-518.757 232.307,-526.887 219.427,-538 188.873,-564.364 155.979,-524.763 130.427,-556 119.734,-569.072 122.082,-579.317 130.427,-594 142.66,-615.524 163.125,-631.93 184.514,-644.155"/>
<polygon fill="black" stroke="black" points="182.93,-647.277 193.388,-648.972 186.269,-641.125 182.93,-647.277"/>
<text text-anchor="start" x="239.427" y="-471.4" font-family="Times Roman,serif" font-size="14.00">OnLostHeartbeat/</text>
</g>
<!-- VehicleFSM::Flying&#45;&gt;VehicleFSM::Disarmed -->
<g id="edge49" class="edge"><title>VehicleFSM::Flying&#45;&gt;VehicleFSM::Disarmed</title>
<path fill="none" stroke="black" d="M182.584,-232.91C178.909,-220.632 177.607,-206.432 185.427,-196 188.954,-191.295 206.908,-184.798 229.388,-178.204"/>
<polygon fill="black" stroke="black" points="230.619,-181.492 239.271,-175.376 228.694,-174.762 230.619,-181.492"/>
<text text-anchor="start" x="185.427" y="-201.4" font-family="Times Roman,serif" font-size="14.00">HBSaysDisarmed/</text>
</g>
<!-- %start -->
<g id="node10" class="node"><title>%start</title>
<ellipse fill="black" stroke="black" cx="285.427" cy="-875" rx="9" ry="9"/>
</g>
<!-- %start&#45;&gt;VehicleFSM::WantInterface -->
<g id="edge55" class="edge"><title>%start&#45;&gt;VehicleFSM::WantInterface</title>
<path fill="none" stroke="black" d="M285.427,-865.8C285.427,-858.627 285.427,-848.083 285.427,-837.197"/>
<polygon fill="black" stroke="black" points="288.927,-837.19 285.427,-827.19 281.927,-837.19 288.927,-837.19"/>
</g>
</g>
</svg>
