<?xml version="1.0" encoding="UTF-8" standalone="no"?>
<!DOCTYPE svg PUBLIC "-//W3C//DTD SVG 1.1//EN"
 "http://www.w3.org/Graphics/SVG/1.1/DTD/svg11.dtd">
<!-- Generated by graphviz version 2.26.3 (20100126.1600)
 -->
<!-- Title: VehicleFSM Pages: 1 -->
<svg width="449pt" height="874pt"
 viewBox="0.00 0.00 449.00 874.00" xmlns="http://www.w3.org/2000/svg" xmlns:xlink="http://www.w3.org/1999/xlink">
<g id="graph1" class="graph" transform="scale(1 1) rotate(0) translate(4 870)">
<title>VehicleFSM</title>
<polygon fill="white" stroke="white" points="-4,5 -4,-870 446,-870 446,5 -4,5"/>
<g id="graph2" class="cluster"><title>cluster_VehicleFSM</title>
<polygon fill="none" stroke="black" points="8,-8 8,-858 427,-858 427,-8 8,-8"/>
<text text-anchor="middle" x="217.5" y="-841.4" font-family="Times Roman,serif" font-size="14.00">VehicleFSM</text>
</g>
<!-- VehicleFSM::WantInterface -->
<g id="node2" class="node"><title>VehicleFSM::WantInterface</title>
<polyline fill="none" stroke="black" points="153,-731 245,-731 "/>
<path fill="none" stroke="black" d="M245,-731C251,-731 257,-737 257,-743"/>
<polyline fill="none" stroke="black" points="257,-743 257,-755 "/>
<path fill="none" stroke="black" d="M257,-755C257,-761 251,-767 245,-767"/>
<polyline fill="none" stroke="black" points="245,-767 153,-767 "/>
<path fill="none" stroke="black" d="M153,-767C147,-767 141,-761 141,-755"/>
<polyline fill="none" stroke="black" points="141,-755 141,-743 "/>
<path fill="none" stroke="black" d="M141,-743C141,-737 147,-731 153,-731"/>
<text text-anchor="middle" x="199" y="-745.4" font-family="Times Roman,serif" font-size="14.00">WantInterface</text>
</g>
<!-- VehicleFSM::WantVehicle -->
<g id="node3" class="node"><title>VehicleFSM::WantVehicle</title>
<polyline fill="none" stroke="black" points="157,-639 241,-639 "/>
<path fill="none" stroke="black" d="M241,-639C247,-639 253,-645 253,-651"/>
<polyline fill="none" stroke="black" points="253,-651 253,-663 "/>
<path fill="none" stroke="black" d="M253,-663C253,-669 247,-675 241,-675"/>
<polyline fill="none" stroke="black" points="241,-675 157,-675 "/>
<path fill="none" stroke="black" d="M157,-675C151,-675 145,-669 145,-663"/>
<polyline fill="none" stroke="black" points="145,-663 145,-651 "/>
<path fill="none" stroke="black" d="M145,-651C145,-645 151,-639 157,-639"/>
<text text-anchor="middle" x="199" y="-653.4" font-family="Times Roman,serif" font-size="14.00">WantVehicle</text>
</g>
<!-- VehicleFSM::WantInterface&#45;&gt;VehicleFSM::WantVehicle -->
<g id="edge3" class="edge"><title>VehicleFSM::WantInterface&#45;&gt;VehicleFSM::WantVehicle</title>
<path fill="none" stroke="black" d="M199,-730.824C199,-717.845 199,-700.133 199,-685.311"/>
<polygon fill="black" stroke="black" points="202.5,-685.138 199,-675.138 195.5,-685.139 202.5,-685.138"/>
<text text-anchor="start" x="199" y="-699.4" font-family="Times Roman,serif" font-size="14.00">OnHasInterface/</text>
</g>
<!-- VehicleFSM::DownloadingWaypoints -->
<g id="node4" class="node"><title>VehicleFSM::DownloadingWaypoints</title>
<polyline fill="none" stroke="black" points="121,-547 277,-547 "/>
<path fill="none" stroke="black" d="M277,-547C283,-547 289,-553 289,-559"/>
<polyline fill="none" stroke="black" points="289,-559 289,-571 "/>
<path fill="none" stroke="black" d="M289,-571C289,-577 283,-583 277,-583"/>
<polyline fill="none" stroke="black" points="277,-583 121,-583 "/>
<path fill="none" stroke="black" d="M121,-583C115,-583 109,-577 109,-571"/>
<polyline fill="none" stroke="black" points="109,-571 109,-559 "/>
<path fill="none" stroke="black" d="M109,-559C109,-553 115,-547 121,-547"/>
<text text-anchor="middle" x="199" y="-561.4" font-family="Times Roman,serif" font-size="14.00">DownloadingWaypoints</text>
</g>
<!-- VehicleFSM::WantVehicle&#45;&gt;VehicleFSM::DownloadingWaypoints -->
<g id="edge5" class="edge"><title>VehicleFSM::WantVehicle&#45;&gt;VehicleFSM::DownloadingWaypoints</title>
<path fill="none" stroke="black" d="M199,-638.824C199,-625.845 199,-608.133 199,-593.311"/>
<polygon fill="black" stroke="black" points="202.5,-593.138 199,-583.138 195.5,-593.139 202.5,-593.138"/>
<text text-anchor="start" x="199" y="-607.4" font-family="Times Roman,serif" font-size="14.00">OnHasHeartbeat/</text>
</g>
<!-- VehicleFSM::DownloadingParameters -->
<g id="node5" class="node"><title>VehicleFSM::DownloadingParameters</title>
<polyline fill="none" stroke="black" points="118,-385 280,-385 "/>
<path fill="none" stroke="black" d="M280,-385C286,-385 292,-391 292,-397"/>
<polyline fill="none" stroke="black" points="292,-397 292,-479 "/>
<path fill="none" stroke="black" d="M292,-479C292,-485 286,-491 280,-491"/>
<polyline fill="none" stroke="black" points="280,-491 118,-491 "/>
<path fill="none" stroke="black" d="M118,-491C112,-491 106,-485 106,-479"/>
<polyline fill="none" stroke="black" points="106,-479 106,-397 "/>
<path fill="none" stroke="black" d="M106,-397C106,-391 112,-385 118,-385"/>
<text text-anchor="middle" x="199" y="-474.4" font-family="Times Roman,serif" font-size="14.00">DownloadingParameters</text>
<polyline fill="none" stroke="black" points="106,-465 292,-465 "/>
<text text-anchor="start" x="114" y="-448.4" font-family="Times Roman,serif" font-size="14.00">Entry/</text>
<text text-anchor="start" x="114" y="-430.4" font-family="Times Roman,serif" font-size="14.00">   setStreamEnable;</text>
<text text-anchor="start" x="114" y="-412.4" font-family="Times Roman,serif" font-size="14.00">Exit/</text>
<text text-anchor="start" x="114" y="-394.4" font-family="Times Roman,serif" font-size="14.00">   setStreamEnable;</text>
</g>
<!-- VehicleFSM::DownloadingWaypoints&#45;&gt;VehicleFSM::DownloadingParameters -->
<g id="edge7" class="edge"><title>VehicleFSM::DownloadingWaypoints&#45;&gt;VehicleFSM::DownloadingParameters</title>
<path fill="none" stroke="black" d="M199,-546.804C199,-534.706 199,-518.03 199,-501.366"/>
<polygon fill="black" stroke="black" points="202.5,-501.033 199,-491.033 195.5,-501.033 202.5,-501.033"/>
<text text-anchor="start" x="199" y="-515.4" font-family="Times Roman,serif" font-size="14.00">OnWaypointsDownloaded/</text>
</g>
<!-- VehicleFSM::DownloadedParameters -->
<g id="node6" class="node"><title>VehicleFSM::DownloadedParameters</title>
<polyline fill="none" stroke="black" points="120,-293 278,-293 "/>
<path fill="none" stroke="black" d="M278,-293C284,-293 290,-299 290,-305"/>
<polyline fill="none" stroke="black" points="290,-305 290,-317 "/>
<path fill="none" stroke="black" d="M290,-317C290,-323 284,-329 278,-329"/>
<polyline fill="none" stroke="black" points="278,-329 120,-329 "/>
<path fill="none" stroke="black" d="M120,-329C114,-329 108,-323 108,-317"/>
<polyline fill="none" stroke="black" points="108,-317 108,-305 "/>
<path fill="none" stroke="black" d="M108,-305C108,-299 114,-293 120,-293"/>
<text text-anchor="middle" x="199" y="-307.4" font-family="Times Roman,serif" font-size="14.00">DownloadedParameters</text>
</g>
<!-- VehicleFSM::DownloadingParameters&#45;&gt;VehicleFSM::DownloadedParameters -->
<g id="edge9" class="edge"><title>VehicleFSM::DownloadingParameters&#45;&gt;VehicleFSM::DownloadedParameters</title>
<path fill="none" stroke="black" d="M199,-384.876C199,-369.215 199,-352.689 199,-339.247"/>
<polygon fill="black" stroke="black" points="202.5,-339.204 199,-329.204 195.5,-339.204 202.5,-339.204"/>
<text text-anchor="start" x="199" y="-353.4" font-family="Times Roman,serif" font-size="14.00">OnParametersDownloaded/</text>
</g>
<!-- VehicleFSM::Disarmed -->
<g id="node7" class="node"><title>VehicleFSM::Disarmed</title>
<polyline fill="none" stroke="black" points="28,-201 112,-201 "/>
<path fill="none" stroke="black" d="M112,-201C118,-201 124,-207 124,-213"/>
<polyline fill="none" stroke="black" points="124,-213 124,-225 "/>
<path fill="none" stroke="black" d="M124,-225C124,-231 118,-237 112,-237"/>
<polyline fill="none" stroke="black" points="112,-237 28,-237 "/>
<path fill="none" stroke="black" d="M28,-237C22,-237 16,-231 16,-225"/>
<polyline fill="none" stroke="black" points="16,-225 16,-213 "/>
<path fill="none" stroke="black" d="M16,-213C16,-207 22,-201 28,-201"/>
<text text-anchor="middle" x="70" y="-215.4" font-family="Times Roman,serif" font-size="14.00">Disarmed</text>
</g>
<!-- VehicleFSM::DownloadedParameters&#45;&gt;VehicleFSM::Disarmed -->
<g id="edge13" class="edge"><title>VehicleFSM::DownloadedParameters&#45;&gt;VehicleFSM::Disarmed</title>
<path fill="none" stroke="black" d="M108.667,-292.996C91.2379,-287.712 76.6276,-281.345 71,-274 65.2605,-266.509 63.8028,-256.607 64.1765,-247.271"/>
<polygon fill="black" stroke="black" points="67.6779,-247.441 65.246,-237.129 60.7165,-246.707 67.6779,-247.441"/>
<text text-anchor="start" x="71" y="-261.4" font-family="Times Roman,serif" font-size="14.00">HBSaysDisarmed/</text>
</g>
<!-- VehicleFSM::Armed -->
<g id="node8" class="node"><title>VehicleFSM::Armed</title>
<polyline fill="none" stroke="black" points="187,-109 271,-109 "/>
<path fill="none" stroke="black" d="M271,-109C277,-109 283,-115 283,-121"/>
<polyline fill="none" stroke="black" points="283,-121 283,-133 "/>
<path fill="none" stroke="black" d="M283,-133C283,-139 277,-145 271,-145"/>
<polyline fill="none" stroke="black" points="271,-145 187,-145 "/>
<path fill="none" stroke="black" d="M187,-145C181,-145 175,-139 175,-133"/>
<polyline fill="none" stroke="black" points="175,-133 175,-121 "/>
<path fill="none" stroke="black" d="M175,-121C175,-115 181,-109 187,-109"/>
<text text-anchor="middle" x="229" y="-123.4" font-family="Times Roman,serif" font-size="14.00">Armed</text>
</g>
<!-- VehicleFSM::DownloadedParameters&#45;&gt;VehicleFSM::Armed -->
<g id="edge11" class="edge"><title>VehicleFSM::DownloadedParameters&#45;&gt;VehicleFSM::Armed</title>
<path fill="none" stroke="black" d="M198.857,-292.745C199.029,-264.801 201.02,-213.259 213,-200 236.851,-173.601 268.851,-209.842 291,-182 300.05,-170.624 292.3,-159.66 279.601,-150.556"/>
<polygon fill="black" stroke="black" points="281.467,-147.595 271.161,-145.14 277.687,-153.486 281.467,-147.595"/>
<text text-anchor="start" x="213" y="-215.4" font-family="Times Roman,serif" font-size="14.00">HBSaysArmed/</text>
</g>
<!-- VehicleFSM::Flying -->
<g id="node9" class="node"><title>VehicleFSM::Flying</title>
<polyline fill="none" stroke="black" points="173,-17 257,-17 "/>
<path fill="none" stroke="black" d="M257,-17C263,-17 269,-23 269,-29"/>
<polyline fill="none" stroke="black" points="269,-29 269,-41 "/>
<path fill="none" stroke="black" d="M269,-41C269,-47 263,-53 257,-53"/>
<polyline fill="none" stroke="black" points="257,-53 173,-53 "/>
<path fill="none" stroke="black" d="M173,-53C167,-53 161,-47 161,-41"/>
<polyline fill="none" stroke="black" points="161,-41 161,-29 "/>
<path fill="none" stroke="black" d="M161,-29C161,-23 167,-17 173,-17"/>
<text text-anchor="middle" x="215" y="-31.4" font-family="Times Roman,serif" font-size="14.00">Flying</text>
</g>
<!-- VehicleFSM::DownloadedParameters&#45;&gt;VehicleFSM::Flying -->
<g id="edge15" class="edge"><title>VehicleFSM::DownloadedParameters&#45;&gt;VehicleFSM::Flying</title>
<path fill="none" stroke="black" d="M249.963,-292.93C274.594,-281.319 301.83,-263.542 316,-238 332.269,-208.674 368.336,-147.969 315,-72 310.065,-64.9711 295.57,-58.1766 279.094,-52.3701"/>
<polygon fill="black" stroke="black" points="279.814,-48.9208 269.221,-49.0712 277.596,-55.56 279.814,-48.9208"/>
<text text-anchor="start" x="342" y="-169.4" font-family="Times Roman,serif" font-size="14.00">HBSaysFlying/</text>
</g>
<!-- VehicleFSM::Disarmed&#45;&gt;VehicleFSM::Armed -->
<g id="edge17" class="edge"><title>VehicleFSM::Disarmed&#45;&gt;VehicleFSM::Armed</title>
<path fill="none" stroke="black" d="M50.6046,-200.849C40.7479,-189.444 32.6374,-174.885 42,-164 59.4403,-143.723 134.85,-151.609 161,-146 162.281,-145.725 163.573,-145.44 164.874,-145.147"/>
<polygon fill="black" stroke="black" points="166.042,-148.466 174.958,-142.743 164.419,-141.657 166.042,-148.466"/>
<text text-anchor="start" x="42" y="-169.4" font-family="Times Roman,serif" font-size="14.00">HBSaysArmed/</text>
</g>
<!-- VehicleFSM::Armed&#45;&gt;VehicleFSM::Disarmed -->
<g id="edge19" class="edge"><title>VehicleFSM::Armed&#45;&gt;VehicleFSM::Disarmed</title>
<path fill="none" stroke="black" d="M197.515,-145.123C187.89,-150.922 177.375,-157.522 168,-164 157.321,-171.379 155.99,-175.092 145,-182 136.972,-187.047 128.158,-191.926 119.482,-196.396"/>
<polygon fill="black" stroke="black" points="117.893,-193.277 110.53,-200.895 121.037,-199.532 117.893,-193.277"/>
<text text-anchor="start" x="168" y="-169.4" font-family="Times Roman,serif" font-size="14.00">HBSaysDisarmed/</text>
</g>
<!-- VehicleFSM::Armed&#45;&gt;VehicleFSM::Flying -->
<g id="edge21" class="edge"><title>VehicleFSM::Armed&#45;&gt;VehicleFSM::Flying</title>
<path fill="none" stroke="black" d="M221.333,-108.869C219.187,-102.961 217.133,-96.2989 216,-90 214.478,-81.5407 213.902,-72.2315 213.796,-63.7156"/>
<polygon fill="black" stroke="black" points="217.298,-63.5039 213.876,-53.4767 210.298,-63.4489 217.298,-63.5039"/>
<text text-anchor="start" x="216" y="-77.4" font-family="Times Roman,serif" font-size="14.00">HBSaysFlying/</text>
</g>
<!-- VehicleFSM::Flying&#45;&gt;VehicleFSM::Disarmed -->
<g id="edge23" class="edge"><title>VehicleFSM::Flying&#45;&gt;VehicleFSM::Disarmed</title>
<path fill="none" stroke="black" d="M160.766,-43.766C121.919,-52.9806 71.6018,-71.4788 43,-108 32.3477,-121.602 26.4083,-163.311 34,-182 35.5937,-185.923 37.8255,-189.659 40.4056,-193.142"/>
<polygon fill="black" stroke="black" points="37.7692,-195.445 46.9213,-200.782 43.0954,-190.903 37.7692,-195.445"/>
<text text-anchor="start" x="43" y="-123.4" font-family="Times Roman,serif" font-size="14.00">HBSaysDisarmed/</text>
</g>
<!-- %start -->
<g id="node10" class="node"><title>%start</title>
<ellipse fill="black" stroke="black" cx="199" cy="-815" rx="9" ry="9"/>
</g>
<!-- %start&#45;&gt;VehicleFSM::WantInterface -->
<g id="edge25" class="edge"><title>%start&#45;&gt;VehicleFSM::WantInterface</title>
<path fill="none" stroke="black" d="M199,-805.823C199,-798.41 199,-787.562 199,-777.326"/>
<polygon fill="black" stroke="black" points="202.5,-777.051 199,-767.051 195.5,-777.051 202.5,-777.051"/>
</g>
</g>
</svg>
