<?xml version="1.0" encoding="UTF-8" standalone="no"?>
<!DOCTYPE svg PUBLIC "-//W3C//DTD SVG 1.1//EN"
 "http://www.w3.org/Graphics/SVG/1.1/DTD/svg11.dtd">
<!-- Generated by graphviz version 2.26.3 (20100126.1600)
 -->
<!-- Title: VehicleFSM Pages: 1 -->
<svg width="728pt" height="804pt"
 viewBox="0.00 0.00 728.00 804.00" xmlns="http://www.w3.org/2000/svg" xmlns:xlink="http://www.w3.org/1999/xlink">
<g id="graph1" class="graph" transform="scale(1 1) rotate(0) translate(4 800)">
<title>VehicleFSM</title>
<polygon fill="white" stroke="white" points="-4,5 -4,-800 725,-800 725,5 -4,5"/>
<g id="graph2" class="cluster"><title>cluster_VehicleFSM</title>
<polygon fill="none" stroke="black" points="8,-8 8,-788 676,-788 676,-8 8,-8"/>
<text text-anchor="middle" x="342" y="-771.4" font-family="Times Roman,serif" font-size="14.00">VehicleFSM</text>
</g>
<!-- VehicleFSM::WantInterface -->
<g id="node2" class="node"><title>VehicleFSM::WantInterface</title>
<polyline fill="none" stroke="black" points="182.5,-661 273.5,-661 "/>
<path fill="none" stroke="black" d="M273.5,-661C279.5,-661 285.5,-667 285.5,-673"/>
<polyline fill="none" stroke="black" points="285.5,-673 285.5,-685 "/>
<path fill="none" stroke="black" d="M285.5,-685C285.5,-691 279.5,-697 273.5,-697"/>
<polyline fill="none" stroke="black" points="273.5,-697 182.5,-697 "/>
<path fill="none" stroke="black" d="M182.5,-697C176.5,-697 170.5,-691 170.5,-685"/>
<polyline fill="none" stroke="black" points="170.5,-685 170.5,-673 "/>
<path fill="none" stroke="black" d="M170.5,-673C170.5,-667 176.5,-661 182.5,-661"/>
<text text-anchor="middle" x="228" y="-675.4" font-family="Times Roman,serif" font-size="14.00">WantInterface</text>
</g>
<!-- VehicleFSM::WantInterface&#45;&gt;VehicleFSM::WantInterface -->
<g id="edge5" class="edge"><title>VehicleFSM::WantInterface&#45;&gt;VehicleFSM::WantInterface</title>
<path fill="none" stroke="black" d="M285.544,-685.707C295.822,-684.835 303,-682.6 303,-679 303,-676.75 300.196,-675.033 295.584,-673.849"/>
<polygon fill="black" stroke="black" points="295.963,-670.366 285.544,-672.293 294.89,-677.283 295.963,-670.366"/>
<text text-anchor="start" x="303" y="-675.4" font-family="Times Roman,serif" font-size="14.00">OnLostInterface/</text>
</g>
<!-- VehicleFSM::WantVehicle -->
<g id="node3" class="node"><title>VehicleFSM::WantVehicle</title>
<polyline fill="none" stroke="black" points="167,-569 251,-569 "/>
<path fill="none" stroke="black" d="M251,-569C257,-569 263,-575 263,-581"/>
<polyline fill="none" stroke="black" points="263,-581 263,-593 "/>
<path fill="none" stroke="black" d="M263,-593C263,-599 257,-605 251,-605"/>
<polyline fill="none" stroke="black" points="251,-605 167,-605 "/>
<path fill="none" stroke="black" d="M167,-605C161,-605 155,-599 155,-593"/>
<polyline fill="none" stroke="black" points="155,-593 155,-581 "/>
<path fill="none" stroke="black" d="M155,-581C155,-575 161,-569 167,-569"/>
<text text-anchor="middle" x="209" y="-583.4" font-family="Times Roman,serif" font-size="14.00">WantVehicle</text>
</g>
<!-- VehicleFSM::WantInterface&#45;&gt;VehicleFSM::WantVehicle -->
<g id="edge3" class="edge"><title>VehicleFSM::WantInterface&#45;&gt;VehicleFSM::WantVehicle</title>
<path fill="none" stroke="black" d="M180.801,-660.915C173.288,-655.931 166.515,-649.707 162,-642 155.727,-631.291 161.298,-620.655 170.506,-611.631"/>
<polygon fill="black" stroke="black" points="172.829,-614.249 178.12,-605.07 168.26,-608.947 172.829,-614.249"/>
<text text-anchor="start" x="162" y="-629.4" font-family="Times Roman,serif" font-size="14.00">OnHasInterface/</text>
</g>
<!-- VehicleFSM::WantVehicle&#45;&gt;VehicleFSM::WantInterface -->
<g id="edge11" class="edge"><title>VehicleFSM::WantVehicle&#45;&gt;VehicleFSM::WantInterface</title>
<path fill="none" stroke="black" d="M255.497,-605.205C262.895,-610.178 269.562,-616.367 274,-624 280.122,-634.529 274.845,-645.044 265.988,-654.018"/>
<polygon fill="black" stroke="black" points="263.433,-651.605 258.266,-660.855 268.073,-656.846 263.433,-651.605"/>
<text text-anchor="start" x="277" y="-629.4" font-family="Times Roman,serif" font-size="14.00">OnLostInterface/</text>
</g>
<!-- VehicleFSM::WantVehicle&#45;&gt;VehicleFSM::WantVehicle -->
<g id="edge9" class="edge"><title>VehicleFSM::WantVehicle&#45;&gt;VehicleFSM::WantVehicle</title>
<path fill="none" stroke="black" d="M263.007,-595.241C273.529,-594.284 281,-591.537 281,-587 281,-584.093 277.934,-581.921 272.964,-580.484"/>
<polygon fill="black" stroke="black" points="273.458,-577.018 263.007,-578.759 272.263,-583.915 273.458,-577.018"/>
<text text-anchor="start" x="281" y="-583.4" font-family="Times Roman,serif" font-size="14.00">OnLostHeartbeat/</text>
</g>
<!-- VehicleFSM::DownloadingWaypoints -->
<g id="node4" class="node"><title>VehicleFSM::DownloadingWaypoints</title>
<polyline fill="none" stroke="black" points="460,-477 616,-477 "/>
<path fill="none" stroke="black" d="M616,-477C622,-477 628,-483 628,-489"/>
<polyline fill="none" stroke="black" points="628,-489 628,-501 "/>
<path fill="none" stroke="black" d="M628,-501C628,-507 622,-513 616,-513"/>
<polyline fill="none" stroke="black" points="616,-513 460,-513 "/>
<path fill="none" stroke="black" d="M460,-513C454,-513 448,-507 448,-501"/>
<polyline fill="none" stroke="black" points="448,-501 448,-489 "/>
<path fill="none" stroke="black" d="M448,-489C448,-483 454,-477 460,-477"/>
<text text-anchor="middle" x="538" y="-491.4" font-family="Times Roman,serif" font-size="14.00">DownloadingWaypoints</text>
</g>
<!-- VehicleFSM::WantVehicle&#45;&gt;VehicleFSM::DownloadingWaypoints -->
<g id="edge7" class="edge"><title>VehicleFSM::WantVehicle&#45;&gt;VehicleFSM::DownloadingWaypoints</title>
<path fill="none" stroke="black" d="M216.758,-568.952C223.192,-556.345 233.619,-540.334 248,-532 283.929,-511.178 392.872,-519.737 434,-514 435.278,-513.822 436.565,-513.639 437.858,-513.452"/>
<polygon fill="black" stroke="black" points="438.515,-516.893 447.883,-511.943 437.473,-509.97 438.515,-516.893"/>
<text text-anchor="start" x="248" y="-537.4" font-family="Times Roman,serif" font-size="14.00">OnHasHeartbeat/</text>
</g>
<!-- VehicleFSM::DownloadingWaypoints&#45;&gt;VehicleFSM::WantInterface -->
<g id="edge17" class="edge"><title>VehicleFSM::DownloadingWaypoints&#45;&gt;VehicleFSM::WantInterface</title>
<path fill="none" stroke="black" d="M532.652,-513.09C528.188,-527.056 521.665,-544.842 516,-550 495.099,-569.031 478.386,-552.122 455,-568 420.429,-591.473 432.387,-619.776 397,-642 380.095,-652.617 335.179,-662.184 295.901,-668.929"/>
<polygon fill="black" stroke="black" points="295.076,-665.519 285.793,-670.626 296.235,-672.422 295.076,-665.519"/>
<text text-anchor="start" x="455" y="-583.4" font-family="Times Roman,serif" font-size="14.00">OnLostInterface/</text>
</g>
<!-- VehicleFSM::DownloadingWaypoints&#45;&gt;VehicleFSM::WantVehicle -->
<g id="edge15" class="edge"><title>VehicleFSM::DownloadingWaypoints&#45;&gt;VehicleFSM::WantVehicle</title>
<path fill="none" stroke="black" d="M447.886,-511.589C428.9,-516.79 409.372,-523.477 392,-532 380.347,-537.718 380.713,-544.405 369,-550 339.068,-564.298 303.295,-573.243 273.172,-578.746"/>
<polygon fill="black" stroke="black" points="272.441,-575.32 263.189,-580.483 273.641,-582.217 272.441,-575.32"/>
<text text-anchor="start" x="392" y="-537.4" font-family="Times Roman,serif" font-size="14.00">OnLostHeartbeat/</text>
</g>
<!-- VehicleFSM::DownloadingParameters -->
<g id="node5" class="node"><title>VehicleFSM::DownloadingParameters</title>
<polyline fill="none" stroke="black" points="440,-385 602,-385 "/>
<path fill="none" stroke="black" d="M602,-385C608,-385 614,-391 614,-397"/>
<polyline fill="none" stroke="black" points="614,-397 614,-409 "/>
<path fill="none" stroke="black" d="M614,-409C614,-415 608,-421 602,-421"/>
<polyline fill="none" stroke="black" points="602,-421 440,-421 "/>
<path fill="none" stroke="black" d="M440,-421C434,-421 428,-415 428,-409"/>
<polyline fill="none" stroke="black" points="428,-409 428,-397 "/>
<path fill="none" stroke="black" d="M428,-397C428,-391 434,-385 440,-385"/>
<text text-anchor="middle" x="521" y="-399.4" font-family="Times Roman,serif" font-size="14.00">DownloadingParameters</text>
</g>
<!-- VehicleFSM::DownloadingWaypoints&#45;&gt;VehicleFSM::DownloadingParameters -->
<g id="edge13" class="edge"><title>VehicleFSM::DownloadingWaypoints&#45;&gt;VehicleFSM::DownloadingParameters</title>
<path fill="none" stroke="black" d="M478.214,-476.991C470.202,-472.082 463.028,-465.865 458,-458 450.502,-446.272 457.457,-435.614 469.09,-426.87"/>
<polygon fill="black" stroke="black" points="471.359,-429.566 477.772,-421.132 467.499,-423.726 471.359,-429.566"/>
<text text-anchor="start" x="458" y="-445.4" font-family="Times Roman,serif" font-size="14.00">OnWaypointsDownloaded/</text>
</g>
<!-- VehicleFSM::DownloadingParameters&#45;&gt;VehicleFSM::WantInterface -->
<g id="edge23" class="edge"><title>VehicleFSM::DownloadingParameters&#45;&gt;VehicleFSM::WantInterface</title>
<path fill="none" stroke="black" d="M605.285,-421.009C622.303,-426.362 636.643,-432.76 642,-440 661.607,-466.499 659.039,-489.486 637,-514 609.436,-544.659 572.172,-500.144 546,-532 540.922,-538.181 542.353,-542.88 546,-550 552.242,-562.186 564.758,-555.814 571,-568 578.7,-583.032 581.542,-592.805 571,-606 537.337,-648.137 385.981,-666.915 295.962,-674.484"/>
<polygon fill="black" stroke="black" points="295.52,-671.008 285.837,-675.31 296.089,-677.985 295.52,-671.008"/>
<text text-anchor="start" x="546" y="-537.4" font-family="Times Roman,serif" font-size="14.00">OnLostInterface/</text>
</g>
<!-- VehicleFSM::DownloadingParameters&#45;&gt;VehicleFSM::WantVehicle -->
<g id="edge21" class="edge"><title>VehicleFSM::DownloadingParameters&#45;&gt;VehicleFSM::WantVehicle</title>
<path fill="none" stroke="black" d="M485.714,-421.128C461.535,-432.961 428.45,-448.01 398,-458 362.135,-469.767 348.472,-458.553 315,-476 292.968,-487.484 295.047,-500.798 274,-514 255.402,-525.666 243.207,-516.166 228,-532 223.995,-536.17 219.773,-547.608 216.328,-558.979"/>
<polygon fill="black" stroke="black" points="212.912,-558.195 213.527,-568.772 219.642,-560.12 212.912,-558.195"/>
<text text-anchor="start" x="315" y="-491.4" font-family="Times Roman,serif" font-size="14.00">OnLostHeartbeat/</text>
</g>
<!-- VehicleFSM::DownloadedParameters -->
<g id="node6" class="node"><title>VehicleFSM::DownloadedParameters</title>
<polyline fill="none" stroke="black" points="285,-293 443,-293 "/>
<path fill="none" stroke="black" d="M443,-293C449,-293 455,-299 455,-305"/>
<polyline fill="none" stroke="black" points="455,-305 455,-317 "/>
<path fill="none" stroke="black" d="M455,-317C455,-323 449,-329 443,-329"/>
<polyline fill="none" stroke="black" points="443,-329 285,-329 "/>
<path fill="none" stroke="black" d="M285,-329C279,-329 273,-323 273,-317"/>
<polyline fill="none" stroke="black" points="273,-317 273,-305 "/>
<path fill="none" stroke="black" d="M273,-305C273,-299 279,-293 285,-293"/>
<text text-anchor="middle" x="364" y="-307.4" font-family="Times Roman,serif" font-size="14.00">DownloadedParameters</text>
</g>
<!-- VehicleFSM::DownloadingParameters&#45;&gt;VehicleFSM::DownloadedParameters -->
<g id="edge19" class="edge"><title>VehicleFSM::DownloadingParameters&#45;&gt;VehicleFSM::DownloadedParameters</title>
<path fill="none" stroke="black" d="M427.985,-386.559C385.194,-378.546 343.125,-369.828 340,-366 333.241,-357.72 335.754,-347.243 341.193,-337.66"/>
<polygon fill="black" stroke="black" points="344.198,-339.462 346.828,-329.199 338.372,-335.582 344.198,-339.462"/>
<text text-anchor="start" x="340" y="-353.4" font-family="Times Roman,serif" font-size="14.00">OnParametersDownloaded/</text>
</g>
<!-- VehicleFSM::DownloadedParameters&#45;&gt;VehicleFSM::WantInterface -->
<g id="edge33" class="edge"><title>VehicleFSM::DownloadedParameters&#45;&gt;VehicleFSM::WantInterface</title>
<path fill="none" stroke="black" d="M272.802,-325.414C222.612,-333.789 169.7,-343.544 166,-348 160.889,-354.155 160.655,-360.048 166,-366 190.939,-393.772 308.061,-356.228 333,-384 344.284,-396.566 343.693,-408.928 333,-422 307.448,-453.237 282.867,-429.136 244,-440 221.253,-446.358 216.522,-450.887 194,-458 165.007,-467.157 146.455,-451.837 128,-476 82.5848,-535.46 108.749,-583.988 156,-642 160.077,-647.006 165.009,-651.406 170.359,-655.258"/>
<polygon fill="black" stroke="black" points="168.745,-658.382 179.045,-660.866 172.542,-652.502 168.745,-658.382"/>
<text text-anchor="start" x="128" y="-491.4" font-family="Times Roman,serif" font-size="14.00">OnLostInterface/</text>
</g>
<!-- VehicleFSM::DownloadedParameters&#45;&gt;VehicleFSM::WantVehicle -->
<g id="edge31" class="edge"><title>VehicleFSM::DownloadedParameters&#45;&gt;VehicleFSM::WantVehicle</title>
<path fill="none" stroke="black" d="M342.586,-329.004C332.025,-340.081 323.243,-354.34 332,-366 349.23,-388.944 376.77,-361.056 394,-384 404.142,-397.505 405.051,-409.229 394,-422 357.56,-464.111 310.709,-401.999 270,-440 245.403,-462.961 274.154,-487.055 254,-514 243.994,-527.378 231.019,-518.631 221,-532 215.251,-539.671 212.146,-549.538 210.503,-558.792"/>
<polygon fill="black" stroke="black" points="207.016,-558.464 209.205,-568.83 213.958,-559.361 207.016,-558.464"/>
<text text-anchor="start" x="270" y="-445.4" font-family="Times Roman,serif" font-size="14.00">OnLostHeartbeat/</text>
</g>
<!-- VehicleFSM::Disarmed -->
<g id="node7" class="node"><title>VehicleFSM::Disarmed</title>
<polyline fill="none" stroke="black" points="247,-109 331,-109 "/>
<path fill="none" stroke="black" d="M331,-109C337,-109 343,-115 343,-121"/>
<polyline fill="none" stroke="black" points="343,-121 343,-133 "/>
<path fill="none" stroke="black" d="M343,-133C343,-139 337,-145 331,-145"/>
<polyline fill="none" stroke="black" points="331,-145 247,-145 "/>
<path fill="none" stroke="black" d="M247,-145C241,-145 235,-139 235,-133"/>
<polyline fill="none" stroke="black" points="235,-133 235,-121 "/>
<path fill="none" stroke="black" d="M235,-121C235,-115 241,-109 247,-109"/>
<text text-anchor="middle" x="289" y="-123.4" font-family="Times Roman,serif" font-size="14.00">Disarmed</text>
</g>
<!-- VehicleFSM::DownloadedParameters&#45;&gt;VehicleFSM::Disarmed -->
<g id="edge27" class="edge"><title>VehicleFSM::DownloadedParameters&#45;&gt;VehicleFSM::Disarmed</title>
<path fill="none" stroke="black" d="M375.764,-292.894C381.635,-281.366 385.964,-266.654 378,-256 361.075,-233.36 336.586,-258.382 317,-238 295.888,-216.029 290.021,-180.564 288.71,-155.646"/>
<polygon fill="black" stroke="black" points="292.2,-155.243 288.394,-145.355 285.203,-155.458 292.2,-155.243"/>
<text text-anchor="start" x="317" y="-215.4" font-family="Times Roman,serif" font-size="14.00">HBSaysDisarmed/</text>
</g>
<!-- VehicleFSM::Armed -->
<g id="node8" class="node"><title>VehicleFSM::Armed</title>
<polyline fill="none" stroke="black" points="197,-17 281,-17 "/>
<path fill="none" stroke="black" d="M281,-17C287,-17 293,-23 293,-29"/>
<polyline fill="none" stroke="black" points="293,-29 293,-41 "/>
<path fill="none" stroke="black" d="M293,-41C293,-47 287,-53 281,-53"/>
<polyline fill="none" stroke="black" points="281,-53 197,-53 "/>
<path fill="none" stroke="black" d="M197,-53C191,-53 185,-47 185,-41"/>
<polyline fill="none" stroke="black" points="185,-41 185,-29 "/>
<path fill="none" stroke="black" d="M185,-29C185,-23 191,-17 197,-17"/>
<text text-anchor="middle" x="239" y="-31.4" font-family="Times Roman,serif" font-size="14.00">Armed</text>
</g>
<!-- VehicleFSM::DownloadedParameters&#45;&gt;VehicleFSM::Armed -->
<g id="edge25" class="edge"><title>VehicleFSM::DownloadedParameters&#45;&gt;VehicleFSM::Armed</title>
<path fill="none" stroke="black" d="M391.654,-292.924C408.823,-279.946 429.389,-260.766 439,-238 460.664,-186.681 421.649,-91.367 401,-72 386.754,-58.6387 342.26,-49.0607 303.499,-43.0017"/>
<polygon fill="black" stroke="black" points="303.68,-39.4897 293.271,-41.4615 302.638,-46.4116 303.68,-39.4897"/>
<text text-anchor="start" x="445" y="-169.4" font-family="Times Roman,serif" font-size="14.00">HBSaysArmed/</text>
</g>
<!-- VehicleFSM::Flying -->
<g id="node9" class="node"><title>VehicleFSM::Flying</title>
<polyline fill="none" stroke="black" points="112,-201 196,-201 "/>
<path fill="none" stroke="black" d="M196,-201C202,-201 208,-207 208,-213"/>
<polyline fill="none" stroke="black" points="208,-213 208,-225 "/>
<path fill="none" stroke="black" d="M208,-225C208,-231 202,-237 196,-237"/>
<polyline fill="none" stroke="black" points="196,-237 112,-237 "/>
<path fill="none" stroke="black" d="M112,-237C106,-237 100,-231 100,-225"/>
<polyline fill="none" stroke="black" points="100,-225 100,-213 "/>
<path fill="none" stroke="black" d="M100,-213C100,-207 106,-201 112,-201"/>
<text text-anchor="middle" x="154" y="-215.4" font-family="Times Roman,serif" font-size="14.00">Flying</text>
</g>
<!-- VehicleFSM::DownloadedParameters&#45;&gt;VehicleFSM::Flying -->
<g id="edge29" class="edge"><title>VehicleFSM::DownloadedParameters&#45;&gt;VehicleFSM::Flying</title>
<path fill="none" stroke="black" d="M322.018,-292.847C308.291,-286.879 292.981,-280.189 279,-274 261.173,-266.109 256.827,-263.891 239,-256 228.077,-251.165 216.343,-246.024 205.187,-241.16"/>
<polygon fill="black" stroke="black" points="206.548,-237.935 195.982,-237.153 203.753,-244.353 206.548,-237.935"/>
<text text-anchor="start" x="279" y="-261.4" font-family="Times Roman,serif" font-size="14.00">HBSaysFlying/</text>
</g>
<!-- VehicleFSM::Disarmed&#45;&gt;VehicleFSM::WantInterface -->
<g id="edge39" class="edge"><title>VehicleFSM::Disarmed&#45;&gt;VehicleFSM::WantInterface</title>
<path fill="none" stroke="black" d="M234.743,-144.753C233.148,-145.185 231.564,-145.602 230,-146 165.775,-162.358 128.697,-145.489 91,-200 42.3046,-270.414 47.1332,-299.402 34,-384 18.7832,-482.021 -0.778919,-525.37 57,-606 80.975,-639.457 123.491,-657.696 160.129,-667.576"/>
<polygon fill="black" stroke="black" points="159.734,-671.086 170.287,-670.146 161.452,-664.3 159.734,-671.086"/>
<text text-anchor="start" x="34" y="-399.4" font-family="Times Roman,serif" font-size="14.00">OnLostInterface/</text>
</g>
<!-- VehicleFSM::Disarmed&#45;&gt;VehicleFSM::WantVehicle -->
<g id="edge37" class="edge"><title>VehicleFSM::Disarmed&#45;&gt;VehicleFSM::WantVehicle</title>
<path fill="none" stroke="black" d="M285.167,-145.314C275.685,-189.381 250.282,-299.907 228,-330 219.418,-341.591 207.805,-335.284 201,-348 172.307,-401.614 293.012,-338.188 333,-384 344.106,-396.723 343.495,-408.768 333,-422 311.16,-449.535 279.981,-414.308 256,-440 233.265,-464.357 262.691,-486.418 244,-514 235.277,-526.872 222.266,-518.83 214,-532 209.091,-539.821 207.168,-549.542 206.679,-558.627"/>
<polygon fill="black" stroke="black" points="203.179,-558.844 206.671,-568.846 210.179,-558.849 203.179,-558.844"/>
<text text-anchor="start" x="201" y="-353.4" font-family="Times Roman,serif" font-size="14.00">OnLostHeartbeat/</text>
</g>
<!-- VehicleFSM::Disarmed&#45;&gt;VehicleFSM::Armed -->
<g id="edge35" class="edge"><title>VehicleFSM::Disarmed&#45;&gt;VehicleFSM::Armed</title>
<path fill="none" stroke="black" d="M293.467,-108.947C295.275,-97.7185 295.77,-83.3154 290,-72 287.758,-67.6026 284.721,-63.6059 281.24,-60.0051"/>
<polygon fill="black" stroke="black" points="283.373,-57.2178 273.583,-53.1688 278.711,-62.4396 283.373,-57.2178"/>
<text text-anchor="start" x="295" y="-77.4" font-family="Times Roman,serif" font-size="14.00">HBSaysArmed/</text>
</g>
<!-- VehicleFSM::Armed&#45;&gt;VehicleFSM::WantInterface -->
<g id="edge47" class="edge"><title>VehicleFSM::Armed&#45;&gt;VehicleFSM::WantInterface</title>
<path fill="none" stroke="black" d="M293.163,-39.7185C382.748,-49.0341 552,-73.6885 552,-127 552,-311 552,-311 552,-311 552,-356.259 596.531,-347.288 623,-384 667.322,-445.475 697.067,-482.815 662,-550 628.911,-613.394 596.792,-616.455 530,-642 488.593,-657.837 371.649,-668.813 296.027,-674.494"/>
<polygon fill="black" stroke="black" points="295.358,-671.034 285.643,-675.26 295.874,-678.015 295.358,-671.034"/>
<text text-anchor="start" x="604" y="-353.4" font-family="Times Roman,serif" font-size="14.00">OnLostInterface/</text>
</g>
<!-- VehicleFSM::Armed&#45;&gt;VehicleFSM::WantVehicle -->
<g id="edge45" class="edge"><title>VehicleFSM::Armed&#45;&gt;VehicleFSM::WantVehicle</title>
<path fill="none" stroke="black" d="M184.923,-44.7632C166.947,-50.2562 147.974,-58.7875 134,-72 90.3929,-113.231 99.833,-140.64 91,-200 82.496,-257.149 65.161,-278.322 91,-330 108.889,-365.777 142.62,-349.581 163,-384 182.754,-417.363 181.04,-445.753 171,-458 145.138,-489.546 106.862,-444.454 81,-476 70.2926,-489.061 76.5923,-497.696 81,-514 85.8342,-531.881 87.6884,-538.24 102,-550 114.395,-560.185 129.764,-567.637 144.949,-573.063"/>
<polygon fill="black" stroke="black" points="144.275,-576.526 154.869,-576.344 146.474,-569.88 144.275,-576.526"/>
<text text-anchor="start" x="91" y="-307.4" font-family="Times Roman,serif" font-size="14.00">OnLostHeartbeat/</text>
</g>
<!-- VehicleFSM::Armed&#45;&gt;VehicleFSM::Disarmed -->
<g id="edge41" class="edge"><title>VehicleFSM::Armed&#45;&gt;VehicleFSM::Disarmed</title>
<path fill="none" stroke="black" d="M185.694,-53.1356C166.895,-62.513 152.888,-75.1228 164,-90 165.058,-91.4163 194.873,-100.268 225.116,-108.957"/>
<polygon fill="black" stroke="black" points="224.337,-112.375 234.914,-111.763 226.264,-105.645 224.337,-112.375"/>
<text text-anchor="start" x="164" y="-77.4" font-family="Times Roman,serif" font-size="14.00">HBSaysDisarmed/</text>
</g>
<!-- VehicleFSM::Armed&#45;&gt;VehicleFSM::Flying -->
<g id="edge43" class="edge"><title>VehicleFSM::Armed&#45;&gt;VehicleFSM::Flying</title>
<path fill="none" stroke="black" d="M185.182,-53.0302C161.265,-64.4299 136.403,-82.0297 127,-108 116.898,-135.902 127.828,-169.107 138.656,-191.884"/>
<polygon fill="black" stroke="black" points="135.604,-193.605 143.228,-200.961 141.855,-190.456 135.604,-193.605"/>
<text text-anchor="start" x="127" y="-123.4" font-family="Times Roman,serif" font-size="14.00">HBSaysFlying/</text>
</g>
<!-- VehicleFSM::Flying&#45;&gt;VehicleFSM::WantInterface -->
<g id="edge53" class="edge"><title>VehicleFSM::Flying&#45;&gt;VehicleFSM::WantInterface</title>
<path fill="none" stroke="black" d="M121.468,-237.081C102.32,-249.705 79.7992,-268.49 69,-292 61.9503,-307.347 61.6839,-314.778 69,-330 80.095,-353.085 92.1486,-352.639 114,-366 130.632,-376.17 143.415,-367.629 154,-384 163.17,-398.182 164.822,-409.034 154,-422 125.345,-456.335 85.0573,-406.886 55,-440 22.1295,-476.214 33.9168,-504.559 52,-550 72.8079,-602.288 92.6698,-610.054 139,-642 147.059,-647.557 156.082,-652.506 165.208,-656.835"/>
<polygon fill="black" stroke="black" points="163.782,-660.032 174.337,-660.958 166.663,-653.652 163.782,-660.032"/>
<text text-anchor="start" x="55" y="-445.4" font-family="Times Roman,serif" font-size="14.00">OnLostInterface/</text>
</g>
<!-- VehicleFSM::Flying&#45;&gt;VehicleFSM::WantVehicle -->
<g id="edge51" class="edge"><title>VehicleFSM::Flying&#45;&gt;VehicleFSM::WantVehicle</title>
<path fill="none" stroke="black" d="M177.808,-237.056C204.705,-259.669 241.929,-299.183 219,-330 202.381,-352.336 175.619,-325.664 159,-348 154.225,-354.418 154.833,-359.171 159,-366 168.111,-380.932 184.889,-369.068 194,-384 211.394,-412.505 206.282,-436.185 181,-458 150.445,-484.364 117.552,-444.763 92,-476 81.3067,-489.072 83.8071,-499.231 92,-514 104.454,-536.449 127.001,-552.9 149.002,-564.438"/>
<polygon fill="black" stroke="black" points="147.524,-567.612 158.037,-568.93 150.641,-561.344 147.524,-567.612"/>
<text text-anchor="start" x="205" y="-399.4" font-family="Times Roman,serif" font-size="14.00">OnLostHeartbeat/</text>
</g>
<!-- VehicleFSM::Flying&#45;&gt;VehicleFSM::Disarmed -->
<g id="edge49" class="edge"><title>VehicleFSM::Flying&#45;&gt;VehicleFSM::Disarmed</title>
<path fill="none" stroke="black" d="M143.58,-200.906C138.375,-189.239 134.755,-174.364 143,-164 165.149,-136.158 186.525,-154.789 221,-146 222.269,-145.676 223.551,-145.347 224.843,-145.012"/>
<polygon fill="black" stroke="black" points="226.094,-148.302 234.869,-142.365 224.307,-141.533 226.094,-148.302"/>
<text text-anchor="start" x="143" y="-169.4" font-family="Times Roman,serif" font-size="14.00">HBSaysDisarmed/</text>
</g>
<!-- %start -->
<g id="node10" class="node"><title>%start</title>
<ellipse fill="black" stroke="black" cx="228" cy="-745" rx="9" ry="9"/>
</g>
<!-- %start&#45;&gt;VehicleFSM::WantInterface -->
<g id="edge55" class="edge"><title>%start&#45;&gt;VehicleFSM::WantInterface</title>
<path fill="none" stroke="black" d="M228,-735.823C228,-728.41 228,-717.562 228,-707.326"/>
<polygon fill="black" stroke="black" points="231.5,-707.051 228,-697.051 224.5,-707.051 231.5,-707.051"/>
</g>
</g>
</svg>
